<?xml version="1.0" encoding="utf-8"?>
<!-- Generator: Adobe Illustrator 18.1.1, SVG Export Plug-In . SVG Version: 6.00 Build 0)  -->
<svg version="1.1" id="Capa_1" xmlns="http://www.w3.org/2000/svg" xmlns:xlink="http://www.w3.org/1999/xlink" x="0px" y="0px"
	 width="1400px" height="980px" viewBox="0 0 1400 980" enable-background="new 0 0 1400 980" xml:space="preserve">
<g>
	<path fill="#FFFFFF" d="M1,385c0-28,0-56,0-84c31.9,0,63.8,0,95.5,0c0-9.2,0-17.7,0-26.2c0.1-11.6,0.1-23.1,0.4-34.7
		c0.1-4.5-2-5.2-5.9-4.9c-5.9,0.4-11.9,0.1-17.8,0.1c-7.6-0.1-15.3-0.4-22.9-0.4c-16.4,0-32.9,0.1-49.3,0.2c0-28,0-56,0-84
		c1.3,0.2,2.6,0.5,3.9,0.5c14.2-0.4,28.4-1.2,42.6-1.3c15.1-0.2,30.2,0.1,45.3,0.3c2.5,0,3.9-0.4,3.9-3.6
		c-0.2-20.2-0.1-40.4-0.1-61.8C64.7,85,32.8,85,1,85C1,57,1,29,1,1c466.7,0,933.3,0,1400,0c0,28,0,56,0,84c-31.5,0-63,0-94.6,0
		c0,21.8,0,43,0,65.4c5.7,0,10.8,0.1,15.9,0c8.8-0.1,17.6-0.4,26.4-0.5c7.2,0,14.5,0.3,21.7,0.4c10.2,0.2,20.4,0.4,30.6,0.6
		c0,28,0,56,0,84c-31.4,0-62.8,0-94.6,0c0,22.5,0,43.8,0,65.1c12.2,0,24.3-0.1,36.3,0c7,0.1,14,0.5,21,0.5c9.5,0,19.1-0.2,28.6-0.4
		c2.9,0,5.9-0.2,8.8-0.2c0,28.3,0,56.7,0,85c-31.6,0-63.2,0-94.9,0c0,21.9,0,43.3,0,65.1c2.6,0,5.1,0,7.6,0c5.2,0,10.4-0.2,15.6-0.1
		c10.9,0.2,21.9,0.7,32.8,0.9c13,0.2,25.9,0,38.9,0.1c0,28,0,56,0,84c-1.1-0.2-2.3-0.4-3.4-0.4c-8.1,0.1-16.3,0.2-24.4,0.4
		c-20.9,0.3-41.8,0.6-62.7,1.1c-1.2,0-3.3,2.2-3.3,3.4c-0.6,11.9-0.9,23.9-1.1,35.8c-0.2,8.4,0,16.8,0,25.1
		c32.3,0.2,63.6,0.4,95,0.6c0,28,0,56,0,84c-31.5,0-63,0-94.6,0c0,21.8,0,43,0,65.4c5.7,0,10.8,0.1,15.9,0
		c8.8-0.1,17.6-0.4,26.4-0.5c7.2,0,14.5,0.3,21.7,0.4c10.2,0.2,20.4,0.4,30.6,0.6c0,28,0,56,0,84c-31.4,0-62.8,0-94.6,0
		c0,22.5,0,43.8,0,65.1c12.2,0,24.3-0.1,36.3,0c7,0.1,14,0.5,21,0.5c9.5,0,19.1-0.3,28.6-0.4c2.9,0,5.9-0.2,8.8-0.2c0,27,0,54,0,81
		c-466.7,0-933.3,0-1400,0c0-26.7,0-53.3,0-80c31.9,0,63.8,0,95.5,0c0-9.2,0-17.7,0-26.2c0.1-11.6,0.1-23.1,0.4-34.7
		c0.1-4.5-2-5.2-5.9-4.9c-5.9,0.4-11.9,0.1-17.8,0.1c-7.6-0.1-15.3-0.4-22.9-0.4c-16.4,0-32.9,0.1-49.3,0.2c0-28,0-56,0-84
		c1.3,0.2,2.6,0.5,3.9,0.5c14.2-0.4,28.4-1.2,42.6-1.3c15.1-0.2,30.2,0.1,45.3,0.3c2.5,0,3.9-0.4,3.9-3.6
		c-0.2-20.2-0.1-40.4-0.1-61.8c-31.9,0-63.7,0-95.6,0c0-28.3,0-56.7,0-85c31.9,0,63.9,0,95.6,0c0-3.6,0-7.3,0-11.1
		c-0.1-6.2-0.3-12.4-0.3-18.6c-0.1-10.4-0.2-20.7-0.1-31.1c0-3.5-1.7-4.4-4.6-4.2c-5.6,0.2-11.2,0.7-16.9,0.7
		c-15.8,0-31.6-0.1-47.4-0.4c-4.3-0.1-6.8,0.8-5.9,5.7c-2.9-1.4-5.5-2.6-7.9-3.7c0.6-0.3,1.4-0.7,2.8-1.5
		c-5.7-0.3-10.5-0.6-15.3-0.8c0-28,0-56,0-84c10.6-0.3,21.1-0.8,31.7-0.9c9.2-0.1,18.4,0.5,27.6,0.6c10.6,0.1,21.2-0.1,31.8,0.1
		c3.6,0.1,5.1-0.8,5-4.7c-0.2-6.8-0.1-13.6-0.1-20.4c0-13.4,0-26.8,0-40.7c-3-0.2-5.7-0.6-8.5-0.6c-16.4,0.2-32.8,0.6-49.2,0.7
		C26.5,385.3,13.8,385.1,1,385z M6,75.8c63.9,0,127.2,0,190.7,0c0-21.7,0-43.6,0-65.5c-64,0-127.3,0-190.7,0C6,32.4,6,53.8,6,75.8z
		 M796.8,10.4c-64.2,0-127.4,0-190.6,0c0,22.2,0,43.6,0,65.4c63.8,0,127.1,0,190.6,0C796.8,54.1,796.8,32.4,796.8,10.4z M6,675.8
		c63.9,0,127.3,0,190.7,0c0-21.8,0-43.7,0-65.5c-64,0-127.3,0-190.7,0C6,632.5,6,653.9,6,675.8z M1396.8,10.3
		c-64.2,0-127.4,0-190.7,0c0,22.2,0,43.6,0,65.5c63.8,0,127.1,0,190.7,0C1396.8,54.1,1396.8,32.4,1396.8,10.3z M1206,675.8
		c63.9,0,127.2,0,190.7,0c0-21.7,0-43.6,0-65.5c-64,0-127.3,0-190.7,0C1206,632.4,1206,653.8,1206,675.8z M606.1,610.2
		c0,22.2,0,43.7,0,65.3c1.3-0.2,2.3-0.4,3.3-0.4c9,0.5,17.9,1.3,26.9,1.4c11.3,0.1,22.6-0.4,33.9-0.5c14-0.1,28,0.2,41.9,0
		c10.8-0.1,21.6-0.5,32.4-0.7c4.8-0.1,9.7,0.1,14.5,0.1c10.9,0,21.9,0,32.8,0c1.6,0,4.2,0.8,4.7,0.1c0.9-1.3,0.7-3.5,0.6-5.3
		c-0.1-13.7-0.4-27.5-0.5-41.2c-0.1-6.2,0-12.5,0-18.8C732.9,610.2,669.7,610.2,606.1,610.2z M596.4,610.3c-63.9,0-127,0-190.9,0
		c0,19-0.2,37.5,0.1,55.9c0.1,9.3,0.5,9.3,10.5,9.4c0.2,0,0.3,0.2,0.5,0.2c10.5-0.2,20.9-0.4,31.4-0.5c2,0,3.9,0.3,5.9,0.3
		c6,0.2,12.1,0.6,18.1,0.5c12.7-0.1,25.3-0.6,38-0.6c6.9,0,13.8,0.9,20.7,0.9c11.5,0,22.9-0.5,34.4-0.6c10.3-0.1,20.7,0,31.4,0
		C596.4,653.4,596.4,631.9,596.4,610.3z M406.2,10.3c-0.1,1.9-0.3,3.5-0.3,5.1c-0.1,18-0.2,36-0.3,54c0,6.3,1.8,7.6,7.9,7.1
		c7.1-0.5,14.3-0.3,21.4-0.4c7.8-0.1,15.5-0.3,23.3-0.3c2.1,0,4.1,0.9,6.2,0.8c7.5-0.3,15.1-1.3,22.6-1.3c14,0,28,0.7,42,0.7
		c12.3,0.1,24.5-0.3,36.8-0.4c10.1-0.1,20.3,0,30.7,0c0-22.5,0-43.9,0-65.4C532.7,10.3,469.6,10.3,406.2,10.3z M1196.3,75.4
		c0-22.2,0-43.7,0-65.1c-63.7,0-126.8,0-189.7,0c-0.3,0.6-0.5,0.9-0.5,1.2c-0.2,20.2-0.3,40.3-0.5,60.5c0,3.9,2.3,4.6,5.5,4.4
		c3.3-0.2,6.7-0.8,10-0.8c8.9-0.2,17.8-0.2,26.6-0.2c2,0,3.9,0.2,5.9,0.3c6.2,0.2,12.4,0.6,18.6,0.5c14.6-0.1,29.2-0.5,43.8-0.6
		c5.3,0,10.6,0.8,15.9,0.8c5.2,0,10.4-0.8,15.6-0.9C1163.6,75.3,1179.7,75.4,1196.3,75.4z M1196.4,675.4c0-22.1,0-43.5,0-65.1
		c-63.7,0-126.9,0-190.8,0c0,21.1,0,41.5,0,62c0,3.5,2.3,4.1,4.8,4.2c4.9,0.2,9.8,0.4,14.7,0.2c7.6-0.3,15.3-1,22.9-1.4
		c2-0.1,3.9,0.3,5.9,0.4c6,0.2,12.1,0.6,18.1,0.5c12.5-0.1,25-0.7,37.5-0.7c7.1,0,14.2,0.9,21.2,1c5.5,0,11.1-1,16.6-1
		C1163.4,675.3,1179.6,675.4,1196.4,675.4z M696.5,300.7c0-8.8-0.1-17.3,0-25.8c0.1-11.7,0.2-23.5,0.4-35.2c0.1-3.5-1.6-4.7-4.9-4.6
		c-6.9,0.1-13.9,0.2-20.8,0.2c-20.9,0.1-41.9,0.5-62.8,0.4c-26.4-0.1-52.9-0.5-79.3-0.8c-7.7-0.1-15.5,0-23.2,0
		c0,22.5,0,43.9,0,65.9C570,300.7,633.3,300.7,696.5,300.7z M1105.7,300.7c64.3,0,127.7,0,190.8,0c0-11,0-21.5,0-32
		c0.1-9.8,0.2-19.5,0.4-29.3c0-2.9-1.2-4.4-4.1-4.4c-13.6-0.1-27.2-0.4-40.7-0.4c-38.7,0-77.5,0.1-116.2,0.2c-9.9,0-19.8,0-30.2,0
		C1105.7,256.9,1105.7,278.2,1105.7,300.7z M505.7,900.7c64.3,0,127.7,0,190.8,0c0-11,0-21.5,0-32c0.1-9.8,0.2-19.5,0.4-29.3
		c0-2.9-1.3-4.3-4.2-4.4c-13.6-0.1-27.2-0.4-40.7-0.4c-38.6,0-77.1,0.1-115.7,0.2c-10.1,0-20.2,0-30.6,0
		C505.7,856.9,505.7,878.2,505.7,900.7z M1105.7,900.7c64.3,0,127.7,0,190.8,0c0-10.9,0-21.4,0-31.9c0.1-9.8,0.2-19.5,0.4-29.3
		c0.1-2.9-1.2-4.4-4.1-4.4c-13.6-0.1-27.2-0.4-40.7-0.4c-38.7,0-77.5,0.1-116.2,0.2c-9.9,0-19.8,0-30.2,0
		C1105.7,856.9,1105.7,878.2,1105.7,900.7z M706.6,601.1c8.3,0,16.3,0.2,24.3-0.1c5.1-0.2,10.2-1.3,15.3-1.3
		c8.1,0.1,16.3,1,24.4,1.1c7.1,0.1,14.3-0.4,21.4-0.4c2.6,0,5.2,0.4,7.8,0.4c8.9,0,17.8-0.2,26.7,0c3.8,0,7.6,0.9,11.5,0.9
		c9.6-0.1,19.2-0.7,28.8-0.9c8.7-0.2,17.3-0.1,26-0.1c3.1,0,4.5-1.5,4.4-4.6c-0.1-14.8,0-29.6,0-44.3c0-5.6,0-11.1,0-17
		c-2.5,0-4.2,0-5.8,0c-12,0.1-23.9,0.3-35.9,0.2c-17.8-0.1-35.6-0.5-53.4-0.5c-27.7,0.1-55.5,0.7-83.2,0.8
		c-10.8,0.1-10.8-0.2-11.9,10.8c-0.1,0.5-0.2,1-0.2,1.5C706.6,565.1,706.6,582.6,706.6,601.1z M106.6,601c8.6,0,16.8,0.2,24.9-0.1
		c4.8-0.1,9.5-1.3,14.3-1.3c8.1,0.1,16.3,1,24.4,1.2c7.3,0.1,14.6-0.3,21.9-0.4c2.6,0,5.2,0.4,7.8,0.4c8.2,0,16.5,0,24.7-0.3
		c8-0.2,16,0.2,24.1-0.3c14.1-1,28.4-0.4,42.6,0.2c4.9,0.2,5.8-1.4,5.7-5.5c-0.1-11.3-0.1-22.6-0.2-33.9c0-8.6,0-17.2,0-26.2
		c-2-0.1-3.6-0.2-5.2-0.2c-9,0.1-17.9,0.6-26.9,0.5c-19.4-0.2-38.9-1-58.3-0.8c-30.9,0.2-61.8,0.9-92.7,1.5
		c-6.4,0.1-6.4,0.2-6.7,6.9c-0.1,1.7-0.4,3.3-0.4,5C106.6,565.2,106.6,582.7,106.6,601z M106.1,450.6c63.5,0,127,0,190.5,0
		c0-22.4,0-43.8,0-65.6c-63.7,0-127,0-190.5,0C106.1,406.9,106.1,428.3,106.1,450.6z M706.1,450.6c63.6,0,127,0,190.5,0
		c0-22.4,0-43.8,0-65.6c-63.7,0-127,0-190.5,0C706.1,406.9,706.1,428.3,706.1,450.6z M1206.2,525.1c6-0.3,11.1-0.9,16.2-0.8
		c6.9,0.1,13.8,0.8,20.8,0.9c10.8,0.1,21.6-0.1,32.4,0c8.6,0,17.3,0.4,25.9,0.4c7.5,0,14.9-0.4,22.4-0.4c10.9,0,21.7,0.2,32.6,0.3
		c11.4,0,22.8-0.2,34.2-0.1c6.5,0.1,6.4,0.3,6.4-6.2c-0.2-15.6-0.3-31.1-0.4-46.7c0-4.2,0-8.4,0-12.5c-63.7,0-127,0-190.5,0
		C1206.2,481.8,1206.2,503,1206.2,525.1z M6.4,460c0,21.9,0,43.2,0,65c7.3,0,13.8,0,20.3,0c16.1,0,32.2,0,48.3,0.2
		c8.8,0.1,17.6,0.4,26.4,0.5c7.5,0,14.9-0.4,22.4-0.4c10.9,0,21.7,0.2,32.6,0.3c11.4,0,22.8-0.2,34.2-0.1c6.5,0.1,6.5,0.3,6.4-6.2
		c-0.2-15.6-0.3-31.1-0.4-46.7c0-4.2,0-8.4,0-12.6C133.1,460,69.7,460,6.4,460z M606.3,525.2c5.9-0.4,10.6-1.1,15.4-1
		c10.1,0.2,20.1,1,30.2,1.3c8,0.2,16-0.1,24-0.2c8.6,0,17.3,0.2,25.9,0.1c7,0,14-0.4,21-0.4c11,0,22,0.4,33,0.4
		c12.1,0.1,24.2-0.5,36.2,0.1c4.5,0.2,5.2-1.1,5.1-4.7c-0.1-4,0-8-0.1-12c-0.1-12.2-0.2-24.5-0.3-36.7c0-4.1,0-8.1,0-12.2
		c-63.5,0-126.8,0-190.3,0C606.3,481.7,606.3,503.1,606.3,525.2z M406.5,759.9c-0.5,0.8-0.7,0.9-0.7,1c-0.2,20.6-0.5,41.3-0.4,61.9
		c0,1.1,2.5,3.1,3.9,3.2c6,0.2,12.1-0.2,18.1-0.2c18.8,0,37.6,0,56.4,0.1c4.1,0,8.1,0.7,12.2,0.6c11-0.3,22-1.1,33-1.2
		c11.3-0.1,22.6,0.3,33.9,0.3c9.4,0,18.7-0.4,28.1-0.3c4.3,0.1,5.5-1.6,5.2-5.6c-0.5-6.9-0.8-13.9-0.7-20.8
		c0.2-11.3,0.6-22.5,1.2-33.7c0.2-4-0.8-5.7-5.2-5.4c-6.6,0.4-13.3,0.1-20,0.1c-21.7,0.2-43.5,0.4-65.2,0.6
		c-9.4,0.1-18.9,0.4-28.3,0.3c-18.1-0.2-36.2-0.7-54.3-1C417.8,759.8,411.9,759.9,406.5,759.9z M406.5,159.9c-0.5,0.8-0.7,0.9-0.7,1
		c-0.2,20.6-0.5,41.3-0.4,61.9c0,1.1,2.5,3.2,3.9,3.2c6.4,0.2,12.7-0.3,19.1-0.3c18.5,0,37,0.1,55.4,0.2c4.2,0,8.5,0.7,12.7,0.6
		c11-0.3,22-1,33-1.2c11-0.1,21.9,0.3,32.9,0.3c9.5,0,19-0.4,28.6-0.3c4.8,0.1,5.5-2,5.2-6.1c-0.5-6.7-0.8-13.5-0.7-20.3
		c0.2-11.3,0.8-22.5,1.2-33.7c0.1-2.6,0.8-5.5-3.6-5.4c-13.1,0.1-26.3-0.1-39.4,0c-22.7,0.3-45.4,0.9-68.1,1
		c-20.6,0-41.2-0.6-61.8-0.9C417.9,159.8,411.9,159.9,406.5,159.9z M1005.2,160.1c0,21.2-0.1,42,0.2,62.7c0,1.1,2.5,3,3.9,3.1
		c5.9,0.3,11.7-0.2,17.6-0.2c19,0,38,0,56.9,0.1c4.1,0,8.1,0.7,12.2,0.6c11-0.3,22-1.1,33-1.2c11.3-0.1,22.6,0.4,33.9,0.4
		c9.5,0,19-0.5,28.6-0.4c4,0,4.8-1.6,4.6-5.1c-0.4-7.1-0.8-14.2-0.7-21.3c0.2-11.3,0.6-22.5,1.2-33.7c0.2-4.1-1-5.6-5.3-5.4
		c-6.8,0.4-13.6,0.1-20.5,0.1c-20.6,0.1-41.2,0-61.7,0.2c-10.4,0.1-20.9,0.8-31.3,0.7c-19.9-0.1-39.8-0.5-59.8-0.7
		C1014.1,160.1,1010.1,160.1,1005.2,160.1z M1005.7,813.1c-0.1,0-0.2,0-0.3,0c0,3-0.4,6,0.2,8.9c0.3,1.6,2.2,4,3.4,4
		c6.3,0.2,12.7-0.3,19.1-0.3c18.5,0,37,0,55.4,0.2c4.2,0,8.5,0.7,12.7,0.6c11-0.3,22-1.1,33-1.2c11.1-0.1,22.3,0.3,33.4,0.3
		c9.5,0,19-0.5,28.6-0.3c4.6,0.1,5.2-2,5-5.8c-0.4-6.9-0.8-13.9-0.7-20.8c0.2-11.3,0.7-22.5,1.2-33.7c0.2-3.7-0.6-5.5-4.9-5.2
		c-6.6,0.4-13.3,0.1-20,0.2c-21.9,0.2-43.8,0.4-65.7,0.6c-9.3,0.1-18.6,0.5-27.8,0.3c-22.7-0.3-45.5-0.8-68.2-1.2
		c-3.2-0.1-4.6,0.5-4.6,4.4C1005.9,780.4,1005.7,796.8,1005.7,813.1z M405.6,375.5c64.1,0,127.6,0,190.9,0c0-21.9,0-43.5,0-65.3
		c-1.2-0.1-2-0.3-2.8-0.3c-15.3,0-30.5,0-45.8,0c-29.8,0-59.5-0.2-89.3-0.1c-16.3,0-32.6,0.3-48.8,0.7c-1.3,0-3.6,1.6-3.6,2.5
		c-0.4,11.1-0.4,22.2-0.5,33.3C405.5,355.8,405.6,365.2,405.6,375.5z M1196.5,309.9c-16.5,0-32.4,0-48.4,0
		c-29.9,0-59.8-0.1-89.8-0.1c-16.3,0-32.6,0.3-48.8,0.7c-1.2,0-3.5,1.8-3.5,2.7c-0.3,11.1-0.3,22.2-0.4,33.3c0,9.4,0,18.8,0,29
		c64.1,0,127.6,0,190.8,0C1196.5,353.6,1196.5,332.1,1196.5,309.9z M596.5,975.5c0-21.9,0-43.5,0-65.3c-1.2-0.1-2-0.3-2.8-0.3
		c-15.3,0-30.5,0-45.8,0c-29.8,0-59.5-0.2-89.3-0.1c-16.3,0-32.6,0.3-48.8,0.7c-1.3,0-3.6,1.6-3.7,2.5c-0.4,11.1-0.4,22.2-0.5,33.3
		c-0.1,9.4,0,18.9,0,29.2C469.5,975.5,532.9,975.5,596.5,975.5z M1196.5,910.6c-10.2,0-19.7,0-29.1,0c-23.6-0.1-47.2-0.4-70.8-0.4
		c-28.7,0-57.5,0.3-86.2,0.2c-3.8,0-4.5,1.3-4.5,4.6c0.1,20,0,40,0,60.6c63.9,0,127.3,0,190.6,0
		C1196.5,953.7,1196.5,932.1,1196.5,910.6z M306.1,535c0,12,0,23.2,0,34.5c0,8.8-0.2,17.6-0.3,26.4c0,2-0.5,4.6,2.9,4.6
		c10,0.1,19.9,0.3,29.9,0.4c9.2,0.1,18.5,0.2,27.7,0.1c6-0.1,11.9-1,17.9-1.1c11.8-0.1,23.6,0.2,35.3,0.3
		c15.4,0.2,30.7,0.5,46.1,0.6c10.3,0.1,20.5,0,30.7,0c0-3,0-5.8,0-8.6c0-16.4,0.2-32.7,0-49.1c-0.1-8.7-0.3-8.8-9.3-8.7
		c-22.4,0.2-44.9,0.5-67.3,0.6c-28.8,0.1-57.5,0-86.3,0C324.4,535,315.3,535,306.1,535z M906.1,534.7c0,11.7,0,22.8,0,33.8
		c0,9.1-0.3,18.3-0.3,27.4c0,2-0.5,4.5,3,4.5c10,0,19.9,0.3,29.9,0.4c9.2,0.1,18.5,0.2,27.7,0.1c6-0.1,11.9-1,17.9-1.1
		c11.8-0.1,23.6,0.1,35.3,0.3c15.4,0.2,30.7,0.5,46.1,0.6c10.2,0.1,20.5,0,30.7,0c0.1-1.6,0.4-2.9,0.4-4.2c0-19.1-0.1-38.3-0.1-57.4
		c0-3-0.6-4.5-4.2-4.4c-11.8,0.3-23.6,0.2-35.4,0.2c-27.3,0-54.5,0-81.8,0c-16.9,0-33.9-0.1-50.8-0.1
		C918.4,534.7,912.2,534.7,906.1,534.7z M696.8,385c-3.1-0.2-5.9-0.5-8.7-0.4c-12.4,0.4-24.9,1.2-37.3,1.3
		c-28.2,0.2-56.4,0.1-84.6,0c-18.4-0.1-36.8-0.6-55.2-0.9c-2.8,0-5.2,0-5.2,4.1c0.1,19.5,0,39-0.3,58.6c-0.1,3.4,1.1,4,3.9,3.8
		c8-0.5,16.1-1.4,24.1-1.4c15.8-0.1,31.7,0.1,47.5,0.3c8.2,0.1,16.4,0.5,24.6,0.6c7.6,0.1,15.3-0.1,22.9-0.1
		c6.4,0,12.8,0.3,19.2,0.3c14.9,0,29.7-0.3,44.6-0.2c3.4,0,4.9-0.9,4.7-4.5c-0.2-6.3-0.3-12.6-0.3-18.9
		C696.8,413.6,696.8,399.7,696.8,385z M1297.1,385.1c-3.1-0.2-5.9-0.6-8.7-0.6c-23.6,0.1-47.1,0.1-70.7,0.3
		c-15.1,0.1-30.2,0.3-45.3,0.5c-9.1,0.1-18.3,0.5-27.4,0.5c-11.8-0.1-23.5-0.6-35.3-0.9c-2.6-0.1-4,0.9-4,3.8
		c0,19.7,0.1,39.4-0.3,59.1c-0.1,3.8,1.7,3.8,4.1,3.6c8-0.4,16.1-1.3,24.1-1.4c15.8-0.1,31.7,0.1,47.5,0.3c8,0.1,16.1,0.6,24.1,0.6
		c9.1-0.1,18.1-0.7,27.2-0.7c9.2,0,18.4,0.5,27.7,0.6c10.6,0.1,21.2-0.1,31.8,0.1c3.6,0.1,5.1-0.8,5-4.6c-0.2-10.9,0-21.9,0-32.8
		C1297.1,404.1,1297.1,394.9,1297.1,385.1z M506.2,150.8c14.8,0,28.3,0,41.7,0c3.1,0,6.2,0.2,9.3,0.2c10.3-0.1,20.7-0.3,31-0.2
		c5.8,0,11.7,0.6,17.5,0.5c14.2-0.2,28.4-0.9,42.6-1c14.9-0.2,29.9,0.1,44.8,0.2c2.3,0,3.5-0.6,3.5-3.4c-0.1-8.8,0.3-17.6,0.3-26.4
		c0.1-11.5,0-23.1,0-34.9c-3.1-0.2-5.4-0.5-7.7-0.5c-26.9,0-53.8,0-80.7-0.1c-26.9,0-53.9-0.2-80.8-0.2c-6,0-11.9,0.3-17.9,0.9
		c-1.3,0.1-3.5,2.2-3.5,3.4C506.1,109.3,506.2,129.4,506.2,150.8z M1296.6,85.7c-2.6-0.2-4.9-0.4-7.2-0.4c-27.1,0-54.2,0-81.2,0
		c-22.1,0-44.2-0.1-66.4-0.2c-9.6,0-19.3,0.2-28.9,0.3c-5.9,0.1-6.8,1-6.8,6.3c-0.1,9.3-0.5,18.5-0.3,27.8
		c0.2,10.2,0.9,20.3,1.4,30.2c8.9,0,17.3-0.2,25.7,0.1c7.3,0.2,14.5,1.4,21.8,1.5c11.3,0.2,22.6-0.3,34-0.3c5.5,0,11,0.6,16.6,0.5
		c14-0.3,28.1-1.1,42.1-1.3c15.1-0.2,30.2,0.1,45.3,0.3c2.8,0,4.1-0.5,4.1-3.9C1296.5,126.4,1296.6,106.4,1296.6,85.7z
		 M1106.2,749.8c8.9,0,16.4-0.1,23.9,0c9.1,0.2,18.1,0.9,27.2,1c10.3,0.1,20.7-0.2,31-0.2c5.8,0,11.7,0.6,17.5,0.5
		c14.2-0.2,28.4-0.9,42.6-1c14.9-0.1,29.9,0.1,44.8,0.2c2.4,0,3.5-0.6,3.5-3.5c-0.1-9,0.3-17.9,0.3-26.9c0.1-11.4,0-22.7,0-34.3
		c-3.1-0.2-5.4-0.5-7.7-0.4c-24.1,0.1-48.2,0.2-72.3,0.2c-11.8,0-23.6-0.5-35.4-0.4c-21.9,0.1-43.9,0.4-65.8,0.6
		c-9.3,0.1-9.5,0-9.6,9.1C1106.1,713,1106.2,731.3,1106.2,749.8z M696.6,685.6c-2.6-0.2-4.9-0.4-7.2-0.4c-26.9,0-53.8,0-80.7-0.1
		c-20.6,0-41.2-0.1-61.9-0.1c-11.5,0-22.9,0.1-34.4,0.4c-2.6,0.1-6.3-0.8-6.2,4.3c0.2,12.9-0.2,25.8-0.1,38.6
		c0.1,7.2,0.7,14.4,1.1,21.5c8.2,0,16-0.2,23.7,0.1c7.9,0.2,15.8,1.2,23.7,1.3c11.3,0.1,22.6-0.3,34-0.3c5.5,0,11,0.6,16.6,0.5
		c14-0.3,28.1-1.1,42.1-1.3c15.1-0.2,30.2,0.1,45.3,0.3c2.8,0,4.1-0.5,4-3.9C696.5,726.4,696.6,706.4,696.6,685.6z M496.7,234.9
		c-2.3,0-4.1,0-5.9,0c-18.1,0-36.2,0.1-54.3,0.1c-42,0.1-84.1,0.1-126.1,0.1c-4.7,0-4.4,3.2-4.4,6.1c-0.1,18.5-0.2,37-0.1,55.4
		c0,1.3,1.6,3.4,2.6,3.6c3.1,0.4,6.4-0.1,9.6,0c10.7,0.2,21.4,0.6,32.1,0.6c15.8,0,31.6-0.4,47.4-0.5c14-0.1,28.1,0.1,42.1,0.1
		c10.9,0,21.7-0.1,32.6-0.1c6.7,0,13.5-0.1,20.2,0.2c3.1,0.1,4.1-1,4-4c-0.1-7.3,0.2-14.6,0.3-21.9
		C496.7,261.5,496.7,248.4,496.7,234.9z M1096.4,235.2c-1.1-0.1-1.9-0.2-2.7-0.2c-18.8,0-37.6,0.1-56.3,0.2
		c-42.2,0.1-84.4,0.1-126.6,0.1c-4.9,0-4.8,3.1-4.8,6.3c-0.1,18.5-0.2,37-0.1,55.4c0,1.2,1.7,3.4,2.7,3.5c4.7,0.4,9.4,0.4,14.1,0.3
		c15.9-0.2,31.9-0.7,47.8-0.7c27.4,0.1,54.8,0.5,82.2,0.8c5,0.1,10,0.8,15,0.7c6.3-0.2,12.7-1.4,19-1.3c9.3,0.1,9.6,0.4,9.7-8.9
		C1096.5,272.8,1096.4,254.3,1096.4,235.2z M496.7,834.9c-2.3,0-4.1,0-5.9,0c-17.8,0.1-35.6,0.1-53.3,0.2
		c-41.7,0.1-83.4,0.2-125.1,0.2c-5.9,0-6.5,0.8-6.4,6.5c0,18.3-0.2,36.6-0.1,54.9c0,1.3,1.5,3.5,2.6,3.6c3.1,0.4,6.4-0.1,9.6,0
		c10.7,0.2,21.4,0.6,32.1,0.6c15.8,0,31.6-0.4,47.4-0.5c14-0.1,28.1,0.1,42.1,0.1c10.9,0,21.7-0.1,32.6-0.1c6.7,0,13.5-0.1,20.2,0.2
		c3.1,0.1,4.1-0.9,4.1-4c-0.1-7.3,0.2-14.6,0.3-21.9C496.7,861.5,496.7,848.5,496.7,834.9z M1096.7,834.9c-2.8,0-5.1,0-7.4,0
		c-17.6,0.1-35.2,0.1-52.8,0.2c-42,0.1-84.1,0.1-126.1,0.1c-3.8,0-4.5,2.1-4.4,5.1c0.2,5.6,0.5,11.2,0.5,16.8
		c0,12.5-0.1,25.1-0.4,37.6c-0.1,4.9,1.9,6.9,6.7,6.7c10.8-0.6,21.6-1.1,32.4-1.2c15.8-0.1,31.6,0.3,47.4,0.3
		c26.7,0,53.4-0.2,80.1-0.3c6.6,0,13.1-0.1,19.7,0.2c3.1,0.1,4.1-0.8,4.1-4c-0.1-7.3,0.2-14.6,0.3-21.9
		C1096.7,861.6,1096.7,848.5,1096.7,834.9z M495.1,685.9c-1.9-0.2-3.8-0.7-5.8-0.7c-14.9,0.1-29.9,0.3-44.8,0.3
		c-25.3,0-50.6-0.2-75.8-0.3c-19.4-0.1-38.9-0.1-58.3-0.1c-2.8,0-4.3,0.7-4.2,3.9c0.1,8.7-0.2,17.5-0.2,26.2
		c-0.1,10.1-0.1,20.2-0.1,30.3c0,3.7,0.4,6.6,5.7,5.3c3-0.8,6.4-0.3,9.6-0.3c6.7-0.1,13.4-0.2,20.1-0.2c6.4,0,12.8,0,19.3,0.2
		c8.2,0.2,16.5,0.6,24.7,0.8c1.8,0,3.5-0.9,5.3-0.9c12.8,0.3,25.6,0.8,38.4,0.9c9,0.1,18.1-0.3,27.1-0.4c4.4-0.1,8.9,0.1,13.3,0
		c7.7-0.3,15.4-0.7,23.1-1.4c1.1-0.1,2.9-1.4,2.9-2.3c0.4-4.6,0.5-9.2,0.3-13.9c0-0.9-1.9-1.7-2.8-2.5
		C496.7,728.4,498.3,701.5,495.1,685.9z M1096.2,686c-3-0.3-5-0.8-7-0.8c-14.9,0.1-29.9,0.3-44.8,0.3c-25.3,0-50.6-0.3-75.8-0.4
		c-19.4-0.1-38.9-0.1-58.3-0.1c-2.5,0-4.1,0.5-4.1,3.5c0.1,5.1-0.3,10.2-0.3,15.3c0,11.9,0.1,23.8,0.2,35.7c0,3.2-0.7,6.6,0.3,9.4
		c1.5,4.4,5.8,1.4,8.8,2c4.8,0.9,9.8,0.7,14.7,0.6c10.1-0.3,20.2-1.1,30.3-1.1c8.1-0.1,16.1,0.7,24.2,0.8c1.9,0,3.9-1,5.8-1
		c9.7,0.3,19.4,1,29.1,1c11.8,0,23.6-0.5,35.4-0.8c10.5-0.3,21-0.6,31.5-0.8c2.6-0.1,7.3,0.4,7.5-0.2c1.1-4.8,1.5-9.9,1.8-14.8
		c0-1-1.5-2.1-2.4-3.2c-0.2-0.2-0.3-0.4,0.1,0.1c5.4-7,2.6-14.7,3.1-21.8C1096.6,701.8,1096.2,693.9,1096.2,686z M496.2,85.2
		c-5.8,0-10.2,0-14.6,0c-28.9,0-57.8,0.1-86.7,0.1c-28.1,0-56.2-0.1-84.3-0.2c-2.7,0-4.4,0.5-4.3,3.8c0.1,8.9-0.2,17.8-0.3,26.7
		c-0.1,10.1,0,20.2,0,30.3c0,3.7,0.8,6.1,5.5,4.9c3.1-0.7,6.4-0.3,9.6-0.3c6.8-0.1,13.7-0.3,20.5-0.3c6.3,0,12.5,0.1,18.8,0.3
		c8.2,0.2,16.5,0.6,24.7,0.8c1.8,0,3.5-1,5.3-0.9c12.8,0.3,25.6,0.8,38.4,1c9,0.1,18.1-0.3,27.1-0.4c4.8-0.1,9.5,0.1,14.3-0.2
		c6.9-0.4,13.8-1.7,20.7-1.3c4,0.2,4.7-1.1,4.8-4.1c0.1-3.3,0-6.7-0.3-9.9c-0.2-1.6-1.1-3.1-1.7-4.7c0.5-1,1.6-2.6,2-4.3
		c0.5-2.1,0.6-4.4,0.6-6.6C496.2,108.6,496.2,97.4,496.2,85.2z M1096.1,85.1c-16.9,0-32.6,0-48.4,0c-16.9,0-33.9,0.3-50.8,0.2
		c-28.9,0-57.9-0.2-86.8-0.3c-2.6,0-4,0.8-4,3.7c0,9.1-0.2,18.2-0.3,27.2c-0.1,9.9-0.2,19.9,0.1,29.8c0.1,1.9,1.7,5.2,2.9,5.3
		c6.6,0.7,13.3,0.8,20,0.7c8.8-0.1,17.6-0.9,26.4-0.9c8.5,0,17.1,0.9,25.6,0.9c6.4,0,12.7-1,19.1-1c9.3,0,18.7,0.6,28,0.6
		c9.5,0,19-0.3,28.6-0.5c4.4-0.1,8.9,0.1,13.3-0.1c7.2-0.3,14.4-1.2,21.7-1.2c2.8,0,3.7-0.8,3.8-3.2c0.1-3.8,0.2-7.6-0.1-11.4
		c-0.1-1.5-1.2-2.9-1.8-4.1c0.6-1.3,1.7-3,2.2-4.8c0.5-2,0.4-4.1,0.4-6.1C1096.2,108.7,1096.1,97.5,1096.1,85.1z M996.4,310.1
		c-63.7,0-126.7,0-190.3,0c0,22,0,43.6,0,65.3c63.6,0,126.6,0,190.3,0C996.4,353.4,996.4,331.9,996.4,310.1z M396.4,310.1
		c-63.6,0-126.7,0-190.3,0c0,21.9,0,43.5,0,65.3c63.5,0,126.5,0,190.3,0C396.4,353.5,396.4,332,396.4,310.1z M206,975.4
		c63.5,0,126.6,0,190.3,0c0-22.1,0-43.6,0-65.3c-63.8,0-126.8,0-190.3,0C206,932.1,206,953.6,206,975.4z M806.1,910.1
		c0,22,0,43.6,0,65.3c63.6,0,126.6,0,190.3,0c0-22,0-43.5,0-65.3C932.8,910.1,869.9,910.1,806.1,910.1z M396.1,75.8
		c0-22.2,0-43.3,0-64.7c-5.1-0.2-9.6-0.6-14-0.6c-33.1-0.2-66.2-0.4-99.3-0.3c-23.6,0-47.2,0.6-70.8,0.4c-5,0-5.8,1.7-5.8,5.8
		c0,13.9-0.2,27.8-0.2,41.7c0,6.1,0,12.1,0,17.7c32.2,0,63.8,0.7,95.4-0.2C332.8,74.6,364.2,75.6,396.1,75.8z M996.2,675.9
		c0-22.1,0-43.2,0-64.7c-5-0.2-9.5-0.6-13.9-0.7c-33.1-0.2-66.2-0.4-99.3-0.4c-23.8,0-47.6,0.6-71.3,0.4c-5-0.1-5.4,2-5.4,5.6
		c-0.1,14.2-0.2,28.4-0.3,42.7c0,5.8,0,11.7,0,16.7c32.5,0,64.1,0.5,95.7-0.2C933,674.7,964.5,675.5,996.2,675.9z M996.2,75.8
		c0-22.4,0-43.3,0-64.7c-5-0.2-9.5-0.6-13.9-0.7c-33.1-0.2-66.2-0.4-99.3-0.4c-23.8,0-47.6,0.6-71.3,0.4c-5-0.1-5.4,2-5.4,5.6
		c-0.1,14.2-0.2,28.4-0.3,42.7c0,5.8,0,11.7,0,16.7c32.5,0,64.1,0.5,95.7-0.2C933,74.7,964.5,75.5,996.2,75.8z M206,675.7
		c63.9,1.4,127-2.3,190.1,0.3c0-22.5,0-43.6,0-64.9c-5.2-0.2-9.7-0.6-14.1-0.6c-33.1-0.2-66.2-0.3-99.3-0.3
		c-24.3,0-48.5,0.3-72.8,0.4c-2.8,0-3.4,0.9-3.4,3.5c0,8.2-0.4,16.4-0.5,24.7C205.9,651.1,206,663.5,206,675.7z M906,449.9
		c12.5,0,24.4-0.1,36.2,0c7.9,0.1,15.9,0.9,23.8,0.8c7.2-0.1,14.3-1.2,21.5-1.2c11.8-0.1,23.5,0.3,35.3,0.6
		c9.7,0.2,19.4,0.6,29.1,0.8c8.9,0.2,17.8,0.2,26.6,0.2c2.4,0,4.8-0.4,7.3-0.4c3.5-0.1,7,0,10.8,0c0-21.3,0-41.4,0-61.4
		c0-2.8-0.8-4.2-4-4.1c-11.3,0.1-22.5-0.2-33.8-0.1c-16.7,0.1-33.5,0.5-50.2,0.5c-15.5,0.1-30.9,0-46.4-0.2
		c-11.3-0.1-22.5-0.4-33.8-0.5c-7.4-0.1-14.8,0-22.5,0C906,407.3,906,428.8,906,449.9z M496.6,450.4c0-21.2,0-41.1,0-61
		c0-3-0.6-4.5-4.2-4.5c-11.3,0.1-22.5-0.2-33.8-0.1c-17.6,0.1-35.2,0.3-52.7,0.4c-14.6,0.1-29.2,0.1-43.9,0
		c-11.3-0.1-22.5-0.4-33.8-0.5c-7.3-0.1-14.5,0-22.2,0c0,22.5,0,44.1,0,65.2c13.2,0,25.8-0.1,38.3,0c7.6,0.1,15.2,0.8,22.8,0.7
		c6.8-0.1,13.7-1.1,20.5-1.1c12.3-0.1,24.5,0.3,36.8,0.6c9.4,0.2,18.8,0.6,28.1,0.7c8.2,0.1,16.5-0.1,24.7-0.2
		c2.7,0,5.5-0.1,8.2-0.2C489.1,450.4,492.6,450.4,496.6,450.4z M1006,460c0,6.2,0,11.5,0,16.8c0.1,14.6,0.4,29.2,0.4,43.8
		c0,3.5,2,4.4,4.6,4.4c3,0,6.1-0.8,9.1-0.6c12.5,0.6,25,1.7,37.5,1.9c11.6,0.2,23.2-0.6,34.8-1c3.9-0.1,7.8-0.7,11.7-0.6
		c7.1,0.1,14.1,0.9,21.2,0.9c13.8,0.1,27.6,0,41.4-0.1c8.2-0.1,16.4-1.2,24.5-0.2c6,0.7,4.9-2.7,5.1-5.7c0.2-3.3,0-6.6,0-9.9
		c0-16.3,0-32.6,0-49.6C1133.1,460,1070.2,460,1006,460z M596.2,460.2c-63.4,0-126.5,0-189.6,0c-0.2,2.4-0.4,3.9-0.4,5.4
		c0.1,16.8,0.3,33.5,0.5,50.3c0.1,8.1,0.1,8.2,8.1,8.9c1.7,0.1,3.4-0.6,5.1-0.5c12.5,0.6,25,1.7,37.5,1.9
		c12.9,0.2,25.8-0.4,38.8-0.8c2.7-0.1,5.5-0.7,8.2-0.7c7.1,0.1,14.1,0.7,21.2,0.8c14,0.1,28-0.1,41.9,0c6.6,0,13.2,0.8,19.8,0.8
		c7.7,0.1,8.8-0.7,8.9-6C596.3,500.4,596.2,480.6,596.2,460.2z M395.6,525.2c0-21.5,0-42.6,0-64.8c-63.8,0-126.6,0-189.7,0
		c0,21.9,0,43.8,0,64.8C269.5,525.2,332.6,525.2,395.6,525.2z M995.6,461.1c-12.6-0.5-24.4-1.3-36.1-1.5
		c-23.6-0.3-47.3-0.2-70.9-0.2c-25.9,0-51.9,0.4-77.8,0.2c-4.3,0-5.3,1.2-5.2,5.2c0.2,14.7,0.2,29.5,0.2,44.2c0,5.7,0,11.3,0,16.1
		c63.8,0,126.9,0,189.8,0C995.6,503.9,995.6,482.6,995.6,461.1z M896.3,149.6c0-14.7,0-29.5,0-44.3c0-4.1,1-8.7-5.8-7.6
		c1.8,0,3.6,0,5.5,0c0-1.7,0-3,0-4.3c-0.2-8.3-0.3-8.2-8.4-8.2c-15.4,0-30.9,0-46.3,0c-34.5-0.1-69.1-0.2-103.6-0.2
		c-10.4,0-20.8,0-31.3,0c0,22,0,43.1,0,65.6C769.7,149.9,832.5,151.7,896.3,149.6z M295.8,97.6c0-2.4-0.3-4.5,0-6.4
		c0.8-5.3-2.3-6.1-6.5-6.1c-18.6,0-37.2,0-55.8,0c-29.4,0-58.7,0-88.1,0c-13,0-25.9,0-39.1,0c0,21.6,0,42.8,0,65.2
		c63.6,0,126.6,0,189.9,0c0-15.5-0.1-30.3,0-45.1c0-4.1,0.8-8.5-5.7-7.5C292.3,97.6,294,97.6,295.8,97.6z M106.3,750.3
		c63.6,0,126.6,0,189.9,0c0-15.5-0.1-30.3,0-45.1c0-4.1,0.8-8.5-5.7-7.6c1.8,0,3.6,0,5.4,0c0-1.7,0-3,0-4.4
		c-0.2-8.1-0.3-8.1-8.6-8.1c-15.3,0-30.5-0.1-45.8,0c-23.8,0.2-47.5,0.6-71.3,0.7c-13.8,0-27.5-0.6-41.3-0.8c-7.6-0.1-15.1,0-22.7,0
		C106.3,706.8,106.3,727.8,106.3,750.3z M896.3,750.3c0-15.5-0.1-30.3,0-45.1c0-4.1,0.8-8.5-5.7-7.6c1.8,0,3.6,0,5.3,0
		c0-2.4-0.3-4.4,0-6.3c0.8-5.3-2.3-6.1-6.5-6.1c-18.6,0-37.2,0-55.8,0c-29.4,0-58.7,0-88.1,0c-13,0-25.9,0-39.1,0
		c0,21.6,0,42.8,0,65.2C769.8,750.3,832.7,750.3,896.3,750.3z M706.4,299.8c7.4,0,14.7-1,21.6,0.3c8.1,1.5,16-0.6,24,0.1
		c8.1,0.7,16.3,0.4,24.5,0.4c7.7,0,15.4-0.1,23.1-0.1c8.2,0,16.4,0,24.6,0.2c6,0.1,12,1,18,0.8c4.1-0.1,8.2-1.7,12.3-1.9
		c5.7-0.4,11.4-0.3,17.2-0.1c5.6,0.2,11.3,0.3,16.9,1.1c6.9,1,7.6,0.5,7.6-6.8c0-13.6,0-27.1,0.1-40.7c0-5.8,0-11.6,0-17.5
		c-63.5,0-126.5,0-189.8,0C706.4,257.5,706.4,278.8,706.4,299.8z M106.4,300.1c12.4,0,24.5-0.1,36.5,0c11.6,0.1,23.2,0.6,34.8,0.7
		c8.4,0.1,16.7-0.2,25.1-0.3c11-0.1,21.9-0.2,32.9-0.1c2.4,0,4.8,0.9,7.1,0.8c4-0.3,7.9-1.5,11.9-1.7c5.4-0.3,10.8,0,16.2,0.2
		c5.9,0.2,11.9,0.2,17.8,0.9c5.6,0.6,7.9-0.2,7.8-4.2c-0.1-6.7-0.7-13.5-0.7-20.2c0-12,0.4-24.1,0.6-36.1c0.1-2.9-0.1-5.2-4.1-5
		c-5.9,0.4-11.9,0.8-17.8,0.8c-14.4-0.1-28.7-0.7-43.1-0.8c-9.5-0.1-18.9,0.2-28.4,0.2c-14.4,0-28.9-0.3-43.3-0.2
		c-13.6,0.1-27.2,0.7-40.7,0.9c-4.1,0.1-8.1-0.4-12.8-0.7C106.4,257.3,106.4,278.6,106.4,300.1z M706.4,900.1
		c12.3,0,24.4-0.1,36.4,0c11.6,0.1,23.2,0.6,34.8,0.7c8.4,0.1,16.7-0.3,25.1-0.3c10.6,0,21.3,0.1,31.9,0.2c2.7,0,5.4,0.8,8.1,0.5
		c4-0.3,7.9-1.6,11.9-1.8c5.4-0.3,10.8,0.1,16.2,0.2c5.9,0.2,11.9,0.2,17.8,0.8c5.6,0.6,8-0.2,7.9-4.1c-0.1-6.9-0.8-13.8-0.7-20.7
		c0.1-12,0.6-24.1,0.8-36.1c0-2.6-0.3-4.8-4.1-4.6c-7.7,0.2-15.4,0-23.1,0c-15.9,0-31.9,0.1-47.8,0.1c-19.4,0-38.8-0.4-58.2-0.3
		c-14.1,0.1-28.2,0.8-42.2,1c-4.7,0.1-9.5-0.4-14.9-0.6C706.4,857.2,706.4,878.5,706.4,900.1z M296,835.5c-63.3,0-126.3,0-189.6,0
		c0,22,0,43.2,0,64.3c7.4,0,14.7-1,21.6,0.3c8.1,1.5,16-0.6,24,0.1c8.1,0.7,16.3,0.4,24.5,0.4c7.7,0,15.4-0.1,23.1-0.1
		c8.2,0,16.4,0,24.6,0.2c6,0.1,12,1,18,0.8c4.1-0.1,8.2-1.7,12.3-1.9c5.7-0.4,11.4-0.3,17.2-0.1c5.6,0.2,11.3,0.3,16.9,1.1
		c6.9,1,7.7,0.5,7.6-6.8c-0.1-7.8-0.1-15.5-0.2-23.3C296,858.9,296,847.5,296,835.5z M506.1,535.3c0.6,1.8,1.5,3,1.4,4.1
		c-0.2,2.3-1.4,4.6-1.4,6.9c-0.2,5.3,0.3,10.6,0,15.8c-0.3,4.9,0.6,9.8-0.2,14.8c-1,6.2,0.1,12.8,0.4,19.3c0.1,3.5,1.4,5.5,5.6,4.8
		c5-0.9,10.1-1.4,15.1-1.6c5.7-0.2,11.4,0.2,17.1,0.3c1.1,0,2.1-0.1,3.2-0.2c2.3-0.1,4.6-0.1,6.8-0.2c2.3-0.2,4.5-0.9,6.8-0.9
		c8.9,0.2,17.6,5.4,26.8,1.4c0.4-0.2,1,0,1.5,0c8.6,0.4,17.3,0.9,25.9,1c5.6,0,11.4-1.7,16.7-0.6c4.2,0.9,7.5-1.4,11.2-1
		c3.4,0.3,6.7,1,10,1c2.8,0,5.7-1,8.5-0.9c6.9,0.2,13.9,0.9,20.8,1.2c4.9,0.2,9.8,0,13.9,0c0-5.6,0-10.6,0-15.7
		c0.1-14.6,0.1-29.2,0.3-43.8c0.1-4.4-1.7-6-6.2-6c-16.2,0.2-32.4,0.1-48.7,0.2c-4.5,0-9.1,0.5-13.6,0.2c-4.4-0.3-7.3,0.4-6.7,5.6
		c-2.9-1.3-5.5-2.5-7.8-3.6c0.6-0.3,1.4-0.6,2.2-1c-0.1-0.3-0.1-0.7-0.2-1C579.1,535.3,542.8,535.3,506.1,535.3z M1221.4,541
		c-3.1-1.5-5.7-2.6-8-3.7c0.6-0.3,1.4-0.6,2.2-1c-0.1-0.3-0.1-0.7-0.2-1c-36.3,0-72.7,0-109.4,0c0.6,1.7,1.5,3,1.4,4.1
		c-0.2,2.3-1.4,4.6-1.4,6.9c-0.2,5.3,0.3,10.6,0,15.8c-0.3,4.9,0.6,9.8-0.2,14.8c-1,6.2,0.1,12.8,0.4,19.3c0.1,3.5,1.4,5.5,5.6,4.8
		c5-0.9,10.1-1.4,15.1-1.6c5.7-0.2,11.4,0.2,17.1,0.3c1.1,0,2.1-0.1,3.2-0.2c2.3-0.1,4.6,0,6.8-0.2c2.3-0.2,4.5-0.9,6.8-0.9
		c8.9,0.2,17.6,5.4,26.8,1.4c0.4-0.2,1,0,1.5,0c8.6,0.4,17.3,0.9,25.9,1c5.6,0,11.4-1.7,16.7-0.6c4.2,0.9,7.5-1.4,11.2-1
		c3.4,0.4,6.7,1,10,1c2.8,0,5.7-1,8.5-0.9c6.9,0.2,13.9,0.9,20.8,1.2c4.9,0.2,9.8,0,14,0c0-10.3,0-20.1,0-29.9
		c0-10.2-0.1-20.4,0.1-30.6c0-4-2-5.2-5.6-4.9c-5.3,0.3-10.6,0.8-15.9,0.8c-16,0-31.9,0-47.9-0.5
		C1222.5,535.2,1220.8,536.5,1221.4,541z M996.5,162.1c-0.3-0.7-0.6-1.4-0.9-2c-2.3,0-4.6,0-6.9,0c-17.8,0.2-35.6,0.6-53.4,0.7
		c-16.7,0.1-33.4-0.3-50.1-0.3c-8.4,0-16.9,0.6-25.3,0.5c-15.1-0.1-30.2-0.6-45.2-0.8c-8.6-0.1-9.7,1.3-9.1,10
		c0.1,0.8,0.4,1.6,0.4,2.5c0.3,7.2,0.6,14.4,0.7,21.6c0.1,9.1,0,18.2-0.1,27.3c0,3.5,1.7,3.9,4.7,3.8c7.9-0.3,15.9-0.4,23.8-0.2
		c11.1,0.1,22.1,0.6,33.2,0.8c17.1,0.2,34.1,0.2,51.2,0.3c0.8,0,1.6,0.2,2.4,0.1c6.2-0.4,12.3-1.1,18.5-1.3
		c8.6-0.3,17.2-0.3,25.7-0.2c7.8,0.1,15.5,0.2,23.3,0.6c4.9,0.3,6.8-0.9,6.9-5.9c0.2-6.2,0-12.3-0.3-18.5c-0.1-1.4-1.5-2.7-2.3-4
		c8.5-3.5-4.4-3.3-1.5-6.1c1.1,0.1,2.5,0.3,3.5,0.4c0-6.3-0.6-12.6,0.2-18.8c0.6-4.6,0.4-7.5-4.5-7.9
		C993,163.9,994.8,163,996.5,162.1z M396.5,194.1c-2.2-0.8-3.5-1.3-4.9-1.8c0.2-0.4,0.3-0.9,0.5-1.3c1.4,0.2,2.7,0.4,4.3,0.6
		c-0.3-6.3-1.4-12.5-0.6-18.5c0.7-4.8,0.8-7.8-4-8.3c1.3-0.9,3-1.9,4.6-3c-0.3-0.6-0.5-1.1-0.8-1.7c-2.3,0-4.6,0-6.9,0
		c-17.8,0.2-35.6,0.6-53.4,0.7c-11.8,0.1-23.5-0.4-35.3-0.5c-11.2,0-22.4,0.4-33.6,0.4c-17.1,0-34.1-0.4-51.2-0.5
		c-9.1,0-10.6,1.8-9.3,11c0.1,0.7,0.3,1.3,0.3,2c0.2,7,0.6,14.1,0.6,21.1c0.1,9.3-0.3,18.5,0,27.8c0,1.2,2.7,3.1,4.2,3.2
		c6,0.2,12-0.3,18-0.2c8.3,0.2,16.5,1.1,24.8,1.1c9.2,0,18.4-0.9,27.6-1c6.2-0.1,12.5,0.6,18.7,0.6c13.2-0.1,26.3-0.5,39.5-0.7
		c9.2-0.2,18.5-0.4,27.7-0.3c7.4,0,14.9,0.5,22.3,0.7c3.6,0.1,7.1-0.3,6.9-5.4c-0.2-6.3-0.1-12.7-0.4-19c-0.1-1.3-1.4-2.6-2.2-3.9
		C394.3,196.7,395.3,195.5,396.5,194.1z M996.5,762c-0.3-0.7-0.7-1.4-1-2.1c-3.7,0.3-7.5,0.8-11.2,0.9c-13.4,0-26.8-0.1-40.1-0.2
		c-14.6-0.1-29.1-0.3-43.7-0.3c-11.4,0-22.8,0.4-34.1,0.3c-17.1,0-34.1-0.4-51.2-0.5c-9,0-10.4,1.7-9.4,10.6c0.1,0.7,0.3,1.3,0.3,2
		c0.3,7.2,0.6,14.4,0.7,21.6c0.1,9.1,0,18.2-0.1,27.3c0,3.4,1.8,3.8,4.8,3.6c7.9-0.3,15.9-0.3,23.9-0.2c10.9,0.2,21.8,0.7,32.7,0.8
		c17.2,0.2,34.5,0.2,51.7,0.3c0.8,0,1.6,0.1,2.4,0c6.2-0.4,12.3-1,18.5-1.2c8.4-0.2,16.8-0.2,25.2-0.2c7.9,0.1,15.9,0.4,23.8,0.5
		c3.7,0,7-0.4,6.8-5.5c-0.2-6.3-0.1-12.6-0.5-19c-0.1-1.3-1.5-2.6-2.1-3.7c0.5-0.6,1.5-1.9,2.6-3.3c-2.2-0.8-3.5-1.3-4.9-1.7
		c0.2-0.4,0.3-0.9,0.5-1.3c1.4,0.2,2.7,0.4,3.4,0.5c0-6.2-0.8-12.4,0.2-18.4c0.8-4.8,0.7-7.7-4.1-8.2
		C993.1,763.9,994.8,763,996.5,762z M396.5,762c-0.2-0.6-0.4-1.2-0.6-1.9c-2.4,0-4.9,0-7.3,0c-18,0.2-36,0.6-54,0.7
		c-16.4,0.1-32.7-0.3-49.1-0.3c-8.6,0-17.2,0.6-25.8,0.5c-14.9-0.1-29.8-0.6-44.7-0.8c-9-0.1-10.3,1.7-9.3,10.6
		c0.1,0.5,0.2,1,0.3,1.5c0.3,7.4,0.6,14.7,0.7,22.1c0.1,9.1,0,18.2-0.1,27.3c0,3.4,1.8,3.7,4.8,3.6c7.9-0.3,15.9-0.3,23.9-0.2
		c10.9,0.2,21.8,0.6,32.7,0.8c17.2,0.2,34.5,0.2,51.7,0.3c0.8,0,1.6,0.1,2.4,0c6.2-0.4,12.3-1,18.5-1.2c8.4-0.2,16.8-0.2,25.2-0.2
		c7.9,0.1,15.9,0.4,23.8,0.5c3.7,0.1,7-0.4,6.8-5.5c-0.2-6.3-0.1-12.6-0.5-19c-0.1-1.3-1.5-2.6-2.1-3.7c0.5-0.6,1.5-1.9,3.2-4
		c-2.1,0-2.7,0.2-3.3,0c-0.8-0.3-1.5-0.8-2.3-1.3c0.2-0.3,0.4-0.7,0.6-1c1.4,0.2,2.7,0.4,3.4,0.5c0-6.2-0.8-12.5,0.2-18.4
		c0.8-4.8,0.6-7.7-4.1-8.2C393.1,763.9,394.8,762.9,396.5,762z M1206.3,975.1c2.2,0.2,4.5,0.3,6.9,0.5c2.6,0.2,5.3,0.6,7.9,0.5
		c10.8-0.4,21.6-1,32.5-1.4c7.2-0.2,14.4-0.2,21.5-0.2c9.8,0.1,19.5,0.2,29.3,0.5c4.9,0.1,9.9,1,14.8,0.9
		c13.6-0.3,27.1-1.1,40.7-1.2c10.8-0.1,21.6,0.8,32.4,0.9c1.2,0,3.4-1.9,3.6-3.2c0.6-4.4,0.8-8.8,0.7-13.2c-0.1-9-0.4-18-0.8-26.9
		c0-0.8-1.3-1.6-1.9-2.4c0.4,0.1,0.8,0.2,1.2,0.3c0.4-6.5,0.8-13.1,1.3-19.8c-63.5,0-126.7,0-189.9,0
		C1206.3,932.5,1206.3,954,1206.3,975.1z M1206.3,310.4c0,22.1,0,43.6,0,64.5c2.4,0.2,4.5,0.5,6.7,0.6c2.8,0.2,5.6,0.6,8.4,0.5
		c8.3-0.4,16.5-1.3,24.8-1.5c6.6-0.1,13.3,0.8,19.9,0.7c12.1-0.1,24.1-0.7,36.2-0.8c8-0.1,16,0.5,24,0.5c10.1,0,20.2-0.6,30.3-0.4
		c11.8,0.2,23.6,1,35.4,1.2c1.3,0,3.6-1.9,3.7-3.1c0.6-4.7,0.6-9.5,0.5-14.2c-0.1-8.3-0.4-16.7-0.7-25c0-1.2-0.8-2.3-0.8-2.5
		c0.5-7.2,0.9-13.7,1.4-20.6C1332.9,310.4,1269.9,310.4,1206.3,310.4z M796.3,310.5c-63.5,0-126.7,0-189.9,0c0,22.1,0,43.6,0,64.7
		c2.2,0.2,4.5,0.4,6.9,0.5c2.6,0.2,5.3,0.6,7.9,0.5c10.8-0.4,21.6-1,32.5-1.3c7.2-0.2,14.4-0.3,21.5-0.2c9.8,0.1,19.5,0.2,29.3,0.5
		c4.9,0.1,9.9,1,14.8,0.9c13.6-0.3,27.1-1.1,40.7-1.2c10.8-0.1,21.6,0.8,32.4,1c1.2,0,3.4-2,3.6-3.2c0.6-4.4,0.8-8.8,0.7-13.2
		c-0.1-9-0.4-18-0.8-26.9c0-0.8-1.3-1.6-1.9-2.4c0.4,0.1,0.8,0.2,1.2,0.3C795.4,323.8,795.8,317.4,796.3,310.5z M6.4,375
		c2.2,0.2,4.4,0.4,6.6,0.5c2.6,0.2,5.3,0.7,7.9,0.6c11-0.3,22-0.9,33-1.3c7.2-0.2,14.4-0.4,21.5-0.3c9.8,0.1,19.5,0.3,29.3,0.6
		c4.9,0.2,9.9,0.9,14.8,0.8c13.1-0.3,26.1-1.2,39.2-1.3c11.3,0,22.6,0.9,33.9,1.1c1.2,0,3.3-1.9,3.4-3c0.5-4.7,0.5-9.5,0.5-14.2
		c-0.1-8.5-0.3-17-0.7-25.5c0-1-0.9-2.1-0.8-1.9c0.5-7.4,0.9-14.1,1.4-20.8c-63.6,0-126.6,0-189.9,0C6.4,332.3,6.4,353.8,6.4,375z
		 M6.3,975.1c2.2,0.2,4.4,0.3,6.5,0.5c2.8,0.2,5.6,0.8,8.3,0.6c7.3-0.5,14.5-1.8,21.8-1.9c12.8-0.2,25.6,0.1,38.4,0.3
		c7.9,0.1,15.7,0.5,23.6,0.8c4.8,0.2,9.6,0.8,14.3,0.7c13.2-0.3,26.4-1.2,39.7-1.2c11.1,0,22.3,0.8,33.4,1c1.2,0,3.3-1.8,3.5-3
		c0.5-4.7,0.5-9.5,0.5-14.2c-0.1-8.5-0.3-17-0.7-25.5c0-1.2-1.1-2.3-1.4-2.8c2.7-6.6,0.6-13.4,1.9-19.9c-63.5,0-126.5,0-189.8,0
		C6.3,932.3,6.3,953.8,6.3,975.1z M796.3,910.4c-63.4,0-126.6,0-189.9,0c0,22.1,0,43.6,0,64.5c2.3,0.2,4.5,0.4,6.7,0.6
		c2.8,0.2,5.6,0.7,8.3,0.5c8.3-0.4,16.5-1.3,24.8-1.5c6.8-0.2,13.6,0.6,20.4,0.5c11.9-0.1,23.8-0.6,35.7-0.7c8,0,16,0.5,24,0.5
		c10.1,0,20.2-0.6,30.3-0.4c11.8,0.2,23.6,1,35.4,1.2c1.3,0,3.6-1.8,3.8-3c0.6-4.5,0.7-9.1,0.6-13.7c-0.1-8.7-0.4-17.3-0.8-26
		c0-1-1-2.1-1.5-3.1c0.2,0.1,0.5,0.3,0.7,0.4C795.4,923.9,795.8,917.3,796.3,910.4z M796.1,160.1c-7.1,0-14.2,0-21.3,0
		c-18.3,0-36.5-0.2-54.8-0.1c-22.9,0.2-45.7,0.8-68.6,0.9c-13.5,0.1-26.9-0.5-40.4-0.8c-2.6-0.1-5-0.3-4.9,3.7
		c0.1,20.6,0.1,41.1,0.1,60.6c7.9,0.4,14.8,1.1,21.8,1.2c8.6,0.2,17.2-0.2,25.8-0.1c5.5,0.1,11,0.9,16.4,0.7
		c12.5-0.4,24.9-1.7,37.4-1.9c15-0.2,30.1,0.5,45.1,0.8c4.4,0.1,8.9,0.3,13.3,0.2c3.2-0.1,6.5-0.9,9.7-0.8
		c6.9,0.2,13.8,0.7,20.4,1.1C796.1,203,796.1,181.8,796.1,160.1z M1206.3,225.4c4.6-0.4,8.6-1.2,12.5-1c8.4,0.4,16.8,1.7,25.3,1.8
		c7.7,0.2,15.5-0.8,23.2-1c8.6-0.1,17.2,0.3,25.8,0.3c7.6,0,15.3-0.1,22.9-0.3c2.4,0,4.9-0.3,7.3-0.4c4.4-0.3,8.8-0.7,13.2-0.7
		c10.7,0,21.3,0.3,32,0.4c2.4,0,4.9-0.3,7.3-0.2c6.9,0.3,13.8,0.7,20.3,1.1c0-22.5,0-43.7,0-65.3c-7.2,0-14.3,0-21.4,0
		c-18.4,0-36.8-0.2-55.3,0c-22.7,0.2-45.4,0.7-68.1,0.8c-13.3,0-26.6-0.4-39.9-0.9c-4-0.1-5.3,0.8-5.2,5.3
		C1206.5,185.3,1206.3,205.2,1206.3,225.4z M6.1,824.3c7.9,0.4,15,1.1,22.1,1.2c8.3,0.1,16.6-0.3,24.8-0.2c4,0,7.9,1.2,11.9,1.1
		c5.9-0.1,11.9-1,17.8-1.3c3.7-0.2,7.4,0.4,11.1,0.2c5-0.2,10-0.9,15-0.9c7.4-0.1,14.8,0.1,22.3,0.2c5.8,0,11.6,0.1,17.4,0
		c6.6,0,13.1,0,19.7-0.1c2.6,0,5.2-0.3,7.8-0.2c6.8,0.3,13.5,0.7,20.1,1c0-22.4,0-43.7,0-65.3c-7.4,0-14.5,0-21.6,0
		c-18.3,0-36.5-0.2-54.8,0c-22.7,0.2-45.4,0.8-68.1,0.8c-13.5,0-26.9-0.5-40.4-0.8c-2.8-0.1-5.2-0.2-5.1,4
		C6.2,784.5,6.1,804.9,6.1,824.3z M796.1,760.1c-7.4,0-14.5,0-21.6,0c-18.3,0-36.5-0.2-54.8,0c-22.7,0.2-45.4,0.8-68.1,0.9
		c-13.5,0-26.9-0.5-40.4-0.8c-2.8-0.1-5.2-0.2-5.1,4c0.2,20.4,0.1,40.8,0.1,60.3c7.7,0.4,14.6,1.1,21.6,1.2
		c8.9,0.2,17.9-0.2,26.8-0.1c3.5,0,7,1.1,10.4,1c5.9-0.2,11.9-1,17.8-1.3c3.7-0.2,7.4,0.4,11.1,0.3c5-0.2,10-0.9,15-0.9
		c7.4-0.1,14.8,0.1,22.3,0.2c5.8,0,11.6,0.1,17.4,0c6.6,0,13.1,0,19.7-0.1c2.6,0,5.2-0.3,7.8-0.2c6.8,0.3,13.5,0.7,20.1,1
		C796.1,803.1,796.1,781.9,796.1,760.1z M196.1,160.1c-7.4,0-14.5,0-21.6,0c-18.3,0-36.5-0.2-54.8,0c-22.7,0.2-45.4,0.8-68.1,0.9
		c-13.5,0-26.9-0.5-40.4-0.9c-3.7-0.1-5.3,0.7-5.1,5c0.6,9.9,0.7,19.8,0.8,29.7c0.1,10.3,0,20.5,0,29.6c6.9,0.4,13.5,1.1,20.2,1.1
		c9.4,0.1,18.8-0.4,28.2-0.4c3.2,0,6.3,1.3,9.5,1.3c5.9-0.1,11.9-1,17.8-1.3c3.7-0.2,7.4,0.4,11.1,0.3c5-0.2,10-0.9,15-0.9
		c7.4-0.1,14.8,0.1,22.3,0.2c5.8,0,11.6,0.1,17.4,0c6.6,0,13.1,0,19.7-0.1c2.6,0,5.2-0.3,7.8-0.2c6.8,0.3,13.5,0.7,20.1,1
		C196.1,203.1,196.1,181.9,196.1,160.1z M1396.1,760.1c-7.1,0-14.2,0-21.3,0c-18.3,0-36.5-0.2-54.8-0.1c-22.9,0.2-45.7,0.8-68.6,0.9
		c-13.5,0.1-26.9-0.5-40.4-0.8c-2.6-0.1-5-0.3-4.9,3.7c0.1,20.6,0.1,41.1,0.1,60.6c7.9,0.4,14.8,1.1,21.8,1.2
		c8.6,0.2,17.2-0.2,25.8-0.1c5.5,0.1,11,0.9,16.4,0.7c12.5-0.4,24.9-1.7,37.4-1.9c15-0.2,30.1,0.5,45.1,0.8
		c4.4,0.1,8.9,0.3,13.3,0.2c3.2-0.1,6.5-0.9,9.7-0.8c6.9,0.2,13.8,0.7,20.4,1.1C1396.1,803,1396.1,781.8,1396.1,760.1z"/>
	<path d="M1,385c12.8,0.1,25.5,0.3,38.3,0.3c16.4-0.1,32.8-0.5,49.2-0.7c2.7,0,5.5,0.4,8.5,0.6c0,13.9,0,27.3,0,40.7
		c0,6.8-0.1,13.6,0.1,20.4c0.1,3.8-1.4,4.7-5,4.7c-10.6-0.2-21.2,0-31.8-0.1c-9.2-0.1-18.4-0.7-27.6-0.6
		c-10.6,0.1-21.1,0.6-31.7,0.9C1,429,1,407,1,385z"/>
	<path d="M1,685c31.8,0,63.7,0,95.6,0c0,21.4-0.1,41.6,0.1,61.8c0,3.2-1.3,3.6-3.9,3.6c-15.1-0.1-30.2-0.5-45.3-0.3
		c-14.2,0.2-28.4,0.9-42.6,1.3c-1.3,0-2.6-0.3-3.9-0.5C1,729,1,707,1,685z"/>
	<path d="M1,85c31.8,0,63.7,0,95.6,0c0,21.4-0.1,41.6,0.1,61.8c0,3.2-1.3,3.6-3.9,3.6c-15.1-0.1-30.2-0.5-45.3-0.3
		c-14.2,0.2-28.4,0.9-42.6,1.3c-1.3,0-2.6-0.3-3.9-0.5C1,129,1,107,1,85z"/>
	<path d="M1,235c16.4-0.1,32.9-0.2,49.3-0.2c7.6,0,15.3,0.3,22.9,0.4c5.9,0.1,11.9,0.3,17.8-0.1c3.9-0.2,6,0.4,5.9,4.9
		c-0.3,11.6-0.3,23.1-0.4,34.7c-0.1,8.5,0,17,0,26.2c-31.7,0-63.6,0-95.5,0C1,279,1,257,1,235z"/>
	<path d="M1,835c16.4-0.1,32.9-0.2,49.3-0.2c7.6,0,15.3,0.3,22.9,0.4c5.9,0.1,11.9,0.3,17.8-0.1c3.9-0.2,6,0.4,5.9,4.9
		c-0.3,11.6-0.3,23.1-0.4,34.7c-0.1,8.5,0,17,0,26.2c-31.7,0-63.6,0-95.5,0C1,879,1,857,1,835z"/>
	<path d="M1401,451c-13,0-25.9,0.1-38.9-0.1c-10.9-0.1-21.9-0.6-32.8-0.9c-5.2-0.1-10.4,0-15.6,0.1c-2.5,0-5.1,0-7.6,0
		c0-21.8,0-43.2,0-65.1c31.8,0,63.3,0,94.9,0C1401,407,1401,429,1401,451z"/>
	<path d="M1401,601c-31.4-0.2-62.7-0.4-95-0.6c0-8.4-0.1-16.7,0-25.1c0.2-11.9,0.5-23.9,1.1-35.8c0.1-1.2,2.1-3.4,3.3-3.4
		c20.9-0.5,41.8-0.8,62.7-1.1c8.1-0.1,16.3-0.3,24.4-0.4c1.1,0,2.3,0.3,3.4,0.4C1401,557,1401,579,1401,601z"/>
	<path d="M1401,151c-10.2-0.2-20.4-0.4-30.6-0.6c-7.2-0.1-14.5-0.5-21.7-0.4c-8.8,0-17.6,0.3-26.4,0.5c-5.1,0.1-10.2,0-15.9,0
		c0-22.4,0-43.7,0-65.4c31.6,0,63.1,0,94.6,0C1401,107,1401,129,1401,151z"/>
	<path d="M1401,751c-10.2-0.2-20.4-0.4-30.6-0.6c-7.2-0.1-14.5-0.5-21.7-0.4c-8.8,0-17.6,0.3-26.4,0.5c-5.1,0.1-10.2,0-15.9,0
		c0-22.4,0-43.7,0-65.4c31.6,0,63.1,0,94.6,0C1401,707,1401,729,1401,751z"/>
	<path d="M1,535c4.8,0.3,9.6,0.5,15.3,0.8c-1.4,0.8-2.2,1.1-2.8,1.5c2.4,1.1,5,2.3,7.9,3.7c-0.9-4.9,1.6-5.8,5.9-5.7
		c15.8,0.4,31.6,0.4,47.4,0.4c5.6,0,11.2-0.5,16.9-0.7c2.9-0.1,4.6,0.8,4.6,4.2c-0.1,10.4,0,20.7,0.1,31.1
		c0.1,6.2,0.2,12.4,0.3,18.6c0,3.8,0,7.5,0,11.1c-31.7,0-63.6,0-95.6,0C1,578.3,1,556.7,1,535z"/>
	<path d="M1401,300c-2.9,0.1-5.9,0.2-8.8,0.2c-9.5,0.2-19.1,0.4-28.6,0.4c-7,0-14-0.5-21-0.5c-12-0.1-24,0-36.3,0
		c0-21.4,0-42.6,0-65.1c31.8,0,63.2,0,94.6,0C1401,256.7,1401,278.3,1401,300z"/>
	<path d="M1401,900c-2.9,0.1-5.9,0.2-8.8,0.2c-9.5,0.2-19.1,0.4-28.6,0.4c-7,0-14-0.5-21-0.5c-12-0.1-24,0-36.3,0
		c0-21.4,0-42.6,0-65.1c31.8,0,63.2,0,94.6,0C1401,856.7,1401,878.3,1401,900z"/>
	<path d="M6,75.8c0-22,0-43.4,0-65.5c63.4,0,126.7,0,190.7,0c0,21.9,0,43.8,0,65.5C133.2,75.8,69.9,75.8,6,75.8z"/>
	<path d="M796.8,10.4c0,22,0,43.8,0,65.4c-63.5,0-126.9,0-190.6,0c0-21.8,0-43.3,0-65.4C669.4,10.4,732.6,10.4,796.8,10.4z"/>
	<path d="M6,675.8c0-21.9,0-43.4,0-65.5c63.4,0,126.7,0,190.7,0c0,21.8,0,43.7,0,65.5C133.2,675.8,69.9,675.8,6,675.8z"/>
	<path d="M1396.8,10.3c0,22,0,43.8,0,65.5c-63.6,0-126.9,0-190.7,0c0-21.8,0-43.3,0-65.5C1269.4,10.3,1332.7,10.3,1396.8,10.3z"/>
	<path d="M1206,675.8c0-22,0-43.4,0-65.5c63.4,0,126.7,0,190.7,0c0,21.9,0,43.8,0,65.5C1333.2,675.8,1269.9,675.8,1206,675.8z"/>
	<path d="M606.1,610.2c63.6,0,126.8,0,190.5,0c0,6.4-0.1,12.6,0,18.8c0.2,13.7,0.4,27.5,0.5,41.2c0,1.8,0.2,4-0.6,5.3
		c-0.5,0.7-3.1-0.1-4.7-0.1c-10.9,0-21.9,0-32.8,0c-4.8,0-9.7-0.2-14.5-0.1c-10.8,0.2-21.6,0.6-32.4,0.7c-14,0.1-28-0.1-41.9,0
		c-11.3,0.1-22.6,0.6-33.9,0.5c-9-0.1-17.9-0.9-26.9-1.4c-1-0.1-2,0.2-3.3,0.4C606.1,653.9,606.1,632.4,606.1,610.2z"/>
	<path d="M596.4,610.3c0,21.6,0,43,0,65.5c-10.8,0-21.1-0.1-31.4,0c-11.5,0.1-22.9,0.6-34.4,0.6c-6.9,0-13.8-0.9-20.7-0.9
		c-12.7,0-25.3,0.5-38,0.6c-6,0.1-12.1-0.3-18.1-0.5c-2-0.1-3.9-0.4-5.9-0.3c-10.5,0.1-20.9,0.3-31.4,0.5c-0.2,0-0.3-0.2-0.5-0.2
		c-10-0.1-10.4-0.1-10.5-9.4c-0.3-18.5-0.1-37-0.1-55.9C469.4,610.3,532.5,610.3,596.4,610.3z"/>
	<path d="M406.2,10.3c63.4,0,126.5,0,190.2,0c0,21.4,0,42.9,0,65.4c-10.4,0-20.5-0.1-30.7,0c-12.3,0.1-24.5,0.5-36.8,0.4
		c-14-0.1-28-0.7-42-0.7c-7.5,0-15.1,1-22.6,1.3c-2,0.1-4.1-0.8-6.2-0.8c-7.8,0-15.5,0.2-23.3,0.3c-7.1,0.1-14.3-0.1-21.4,0.4
		c-6.1,0.4-7.9-0.9-7.9-7.1c0.1-18,0.2-36,0.3-54C405.9,13.8,406.1,12.2,406.2,10.3z"/>
	<path d="M1196.3,75.4c-16.6,0-32.7-0.1-48.8,0c-5.2,0-10.4,0.9-15.6,0.9c-5.3,0-10.6-0.8-15.9-0.8c-14.6,0.1-29.2,0.5-43.8,0.6
		c-6.2,0-12.4-0.3-18.6-0.5c-2-0.1-3.9-0.3-5.9-0.3c-8.9,0-17.8,0.1-26.6,0.2c-3.3,0.1-6.7,0.6-10,0.8c-3.1,0.2-5.5-0.5-5.5-4.4
		c0.2-20.2,0.3-40.3,0.5-60.5c0-0.3,0.2-0.6,0.5-1.2c63,0,126.1,0,189.7,0C1196.3,31.7,1196.3,53.2,1196.3,75.4z"/>
	<path d="M1196.4,675.4c-16.8,0-32.9-0.1-49.1,0.1c-5.5,0.1-11.1,1.1-16.6,1c-7.1,0-14.2-1-21.2-1c-12.5,0-25,0.6-37.5,0.7
		c-6,0.1-12.1-0.3-18.1-0.5c-2-0.1-3.9-0.5-5.9-0.4c-7.6,0.4-15.3,1.1-22.9,1.4c-4.9,0.2-9.8,0-14.7-0.2c-2.5-0.1-4.8-0.7-4.8-4.2
		c0.1-20.5,0-41,0-62c63.8,0,127.1,0,190.8,0C1196.4,631.8,1196.4,653.3,1196.4,675.4z"/>
	<path d="M696.5,300.7c-63.1,0-126.4,0-190.5,0c0-22,0-43.4,0-65.9c7.7,0,15.4-0.1,23.2,0c26.4,0.3,52.9,0.7,79.3,0.8
		c20.9,0.1,41.9-0.2,62.8-0.4c6.9,0,13.9-0.1,20.8-0.2c3.3-0.1,5,1.1,4.9,4.6c-0.2,11.7-0.4,23.5-0.4,35.2
		C696.4,283.4,696.5,291.9,696.5,300.7z"/>
	<path d="M1105.7,300.7c0-22.4,0-43.7,0-65.9c10.3,0,20.3,0,30.2,0c38.7-0.1,77.5-0.2,116.2-0.2c13.6,0,27.2,0.3,40.7,0.4
		c2.9,0,4.2,1.5,4.1,4.4c-0.2,9.8-0.3,19.5-0.4,29.3c-0.1,10.5,0,21,0,32C1233.4,300.7,1170,300.7,1105.7,300.7z"/>
	<path d="M505.7,900.7c0-22.4,0-43.7,0-65.9c10.5,0,20.6,0,30.6,0c38.6-0.1,77.1-0.2,115.7-0.2c13.6,0,27.2,0.3,40.7,0.4
		c2.9,0,4.2,1.5,4.2,4.4c-0.2,9.8-0.3,19.5-0.4,29.3c-0.1,10.5,0,21,0,32C633.4,900.7,570,900.7,505.7,900.7z"/>
	<path d="M1105.7,900.7c0-22.5,0-43.8,0-65.9c10.4,0,20.3,0,30.2,0c38.7-0.1,77.5-0.2,116.2-0.2c13.6,0,27.2,0.3,40.7,0.4
		c2.9,0,4.2,1.5,4.1,4.4c-0.2,9.8-0.3,19.5-0.4,29.3c-0.1,10.5,0,21,0,31.9C1233.4,900.7,1169.9,900.7,1105.7,900.7z"/>
	<path d="M706.6,601.1c0-18.5,0-36,0-53.6c0-0.5,0.2-1,0.2-1.5c1.1-11,1.1-10.7,11.9-10.8c27.7-0.2,55.5-0.7,83.2-0.8
		c17.8-0.1,35.6,0.4,53.4,0.5c12,0.1,23.9-0.1,35.9-0.2c1.6,0,3.3,0,5.8,0c0,5.9,0,11.5,0,17c0,14.8-0.1,29.6,0,44.3
		c0,3.2-1.4,4.6-4.4,4.6c-8.7,0-17.3,0-26,0.1c-9.6,0.2-19.2,0.7-28.8,0.9c-3.8,0.1-7.6-0.8-11.5-0.9c-8.9-0.1-17.8,0.1-26.7,0
		c-2.6,0-5.2-0.5-7.8-0.4c-7.1,0.1-14.3,0.6-21.4,0.4c-8.1-0.1-16.3-1.1-24.4-1.1c-5.1,0-10.2,1.1-15.3,1.3
		C722.9,601.3,714.9,601.1,706.6,601.1z"/>
	<path d="M106.6,601c0-18.3,0-35.8,0-53.3c0-1.7,0.4-3.3,0.4-5c0.2-6.8,0.2-6.8,6.7-6.9c30.9-0.5,61.8-1.3,92.7-1.5
		c19.4-0.1,38.9,0.7,58.3,0.8c9,0.1,17.9-0.3,26.9-0.5c1.6,0,3.3,0.1,5.2,0.2c0,9,0,17.6,0,26.2c0,11.3,0,22.6,0.2,33.9
		c0,4-0.8,5.7-5.7,5.5c-14.2-0.6-28.5-1.2-42.6-0.2c-8.1,0.6-16.1,0.1-24.1,0.3c-8.2,0.2-16.5,0.2-24.7,0.3c-2.6,0-5.2-0.4-7.8-0.4
		c-7.3,0.1-14.6,0.5-21.9,0.4c-8.1-0.2-16.3-1.1-24.4-1.2c-4.8-0.1-9.5,1.1-14.3,1.3C123.3,601.2,115.2,601,106.6,601z"/>
	<path d="M106.1,450.6c0-22.3,0-43.7,0-65.6c63.5,0,126.8,0,190.5,0c0,21.8,0,43.2,0,65.6C233.1,450.6,169.6,450.6,106.1,450.6z"/>
	<path d="M706.1,450.6c0-22.3,0-43.7,0-65.6c63.5,0,126.8,0,190.5,0c0,21.8,0,43.2,0,65.6C833.1,450.6,769.6,450.6,706.1,450.6z"/>
	<path d="M1206.2,525.1c0-22.2,0-43.4,0-65.2c63.5,0,126.8,0,190.5,0c0,4.1,0,8.3,0,12.5c0.1,15.6,0.2,31.1,0.4,46.7
		c0.1,6.5,0.1,6.3-6.4,6.2c-11.4-0.2-22.8,0.1-34.2,0.1c-10.9,0-21.7-0.3-32.6-0.3c-7.5,0-14.9,0.4-22.4,0.4
		c-8.6,0-17.3-0.3-25.9-0.4c-10.8-0.1-21.6,0.2-32.4,0c-6.9-0.1-13.8-0.8-20.8-0.9C1217.3,524.3,1212.3,524.8,1206.2,525.1z"/>
	<path d="M6.4,460c63.3,0,126.7,0,190.3,0c0,4.1,0,8.4,0,12.6c0.1,15.6,0.2,31.1,0.4,46.7c0.1,6.5,0.1,6.3-6.4,6.2
		c-11.4-0.2-22.8,0.1-34.2,0.1c-10.9,0-21.7-0.3-32.6-0.3c-7.5,0-15,0.4-22.4,0.4c-8.8,0-17.6-0.4-26.4-0.5
		C58.9,525,42.8,525,26.7,525c-6.5,0-13.1,0-20.3,0C6.4,503.2,6.4,481.9,6.4,460z"/>
	<path d="M606.3,525.2c0-22.2,0-43.5,0-65.3c63.5,0,126.8,0,190.3,0c0,4.1,0,8.2,0,12.2c0.1,12.2,0.2,24.5,0.3,36.7c0,4,0,8,0.1,12
		c0.1,3.6-0.6,4.9-5.1,4.7c-12-0.6-24.1,0-36.2-0.1c-11,0-22-0.4-33-0.4c-7,0-14,0.4-21,0.4c-8.6,0-17.3-0.1-25.9-0.1
		c-8,0-16,0.3-24,0.2c-10.1-0.2-20.1-1-30.2-1.3C617,524.2,612.2,524.8,606.3,525.2z"/>
	<path d="M406.5,759.9c5.5,0,11.4-0.1,17.3,0c18.1,0.3,36.2,0.8,54.3,1c9.4,0.1,18.9-0.2,28.3-0.3c21.7-0.2,43.5-0.4,65.2-0.6
		c6.7-0.1,13.3,0.2,20-0.1c4.4-0.3,5.4,1.4,5.2,5.4c-0.6,11.2-1.1,22.5-1.2,33.7c-0.1,6.9,0.2,13.9,0.7,20.8c0.3,4-0.9,5.7-5.2,5.6
		c-9.3-0.1-18.7,0.3-28.1,0.3c-11.3,0-22.6-0.5-33.9-0.3c-11,0.1-22,0.9-33,1.2c-4.1,0.1-8.1-0.6-12.2-0.6
		c-18.8-0.1-37.6-0.1-56.4-0.1c-6,0-12.1,0.4-18.1,0.2c-1.4-0.1-3.9-2.1-3.9-3.2c0-20.6,0.2-41.3,0.4-61.9
		C405.8,760.8,405.9,760.6,406.5,759.9z"/>
	<path d="M406.5,159.9c5.5,0,11.4-0.1,17.3,0c20.6,0.3,41.2,0.9,61.8,0.9c22.7,0,45.4-0.7,68.1-1c13.1-0.1,26.3,0.1,39.4,0
		c4.4,0,3.7,2.8,3.6,5.4c-0.4,11.2-1,22.5-1.2,33.7c-0.1,6.8,0.2,13.5,0.7,20.3c0.3,4-0.4,6.2-5.2,6.1c-9.5-0.2-19,0.3-28.6,0.3
		c-11,0-22-0.5-32.9-0.3c-11,0.1-22,0.9-33,1.2c-4.2,0.1-8.5-0.6-12.7-0.6c-18.5-0.1-37-0.2-55.4-0.2c-6.4,0-12.7,0.5-19.1,0.3
		c-1.4,0-3.9-2.1-3.9-3.2c0-20.6,0.2-41.3,0.4-61.9C405.8,160.8,405.9,160.6,406.5,159.9z"/>
	<path d="M1005.2,160.1c4.9,0,9,0,13,0c19.9,0.2,39.8,0.6,59.8,0.7c10.4,0,20.8-0.6,31.3-0.7c20.6-0.2,41.2-0.2,61.7-0.2
		c6.8,0,13.7,0.3,20.5-0.1c4.3-0.2,5.5,1.3,5.3,5.4c-0.6,11.2-1.1,22.5-1.2,33.7c-0.1,7.1,0.3,14.2,0.7,21.3
		c0.2,3.4-0.7,5.1-4.6,5.1c-9.5-0.1-19,0.4-28.6,0.4c-11.3,0-22.6-0.5-33.9-0.4c-11,0.1-22,0.9-33,1.2c-4.1,0.1-8.1-0.6-12.2-0.6
		c-19-0.1-38-0.1-56.9-0.1c-5.9,0-11.7,0.4-17.6,0.2c-1.4-0.1-3.9-2-3.9-3.1C1005.1,202.1,1005.2,181.3,1005.2,160.1z"/>
	<path d="M1005.7,813.1c0-16.4,0.2-32.7-0.1-49.1c-0.1-3.9,1.4-4.5,4.6-4.4c22.7,0.5,45.5,0.9,68.2,1.2c9.3,0.1,18.6-0.3,27.8-0.3
		c21.9-0.2,43.8-0.4,65.7-0.6c6.7-0.1,13.3,0.2,20-0.2c4.3-0.2,5.1,1.5,4.9,5.2c-0.6,11.2-1.1,22.5-1.2,33.7
		c-0.1,6.9,0.3,13.9,0.7,20.8c0.2,3.8-0.3,5.9-5,5.8c-9.5-0.2-19,0.3-28.6,0.3c-11.1,0-22.3-0.5-33.4-0.3c-11,0.1-22,0.9-33,1.2
		c-4.2,0.1-8.5-0.6-12.7-0.6c-18.5-0.1-37-0.2-55.4-0.2c-6.4,0-12.7,0.6-19.1,0.3c-1.2,0-3.1-2.5-3.4-4c-0.5-2.9-0.2-5.9-0.2-8.9
		C1005.5,813.2,1005.6,813.1,1005.7,813.1z"/>
	<path d="M405.6,375.5c0-10.3,0-19.8,0-29.2c0.1-11.1,0.1-22.2,0.5-33.3c0-0.9,2.4-2.5,3.6-2.5c16.3-0.4,32.5-0.6,48.8-0.7
		c29.8-0.1,59.5,0.1,89.3,0.1c15.3,0,30.5,0,45.8,0c0.8,0,1.6,0.2,2.8,0.3c0,21.8,0,43.4,0,65.3
		C533.2,375.5,469.7,375.5,405.6,375.5z"/>
	<path d="M1196.5,309.9c0,22.2,0,43.7,0,65.6c-63.2,0-126.7,0-190.8,0c0-10.2,0-19.6,0-29c0-11.1,0.1-22.2,0.4-33.3
		c0-1,2.3-2.7,3.5-2.7c16.3-0.4,32.5-0.6,48.8-0.7c29.9-0.1,59.8,0,89.8,0.1C1164,309.9,1179.9,309.9,1196.5,309.9z"/>
	<path d="M596.5,975.5c-63.5,0-126.9,0-190.9,0c0-10.3,0-19.8,0-29.2c0.1-11.1,0.1-22.2,0.5-33.3c0-0.9,2.4-2.5,3.7-2.5
		c16.3-0.4,32.5-0.6,48.8-0.7c29.7-0.1,59.5,0.1,89.3,0.1c15.3,0,30.5,0,45.8,0c0.8,0,1.6,0.2,2.8,0.3
		C596.5,932,596.5,953.6,596.5,975.5z"/>
	<path d="M1196.5,910.6c0,21.5,0,43.1,0,65c-63.2,0-126.6,0-190.6,0c0-20.7,0-40.6,0-60.6c0-3.3,0.6-4.6,4.5-4.6
		c28.7,0.1,57.5-0.2,86.2-0.2c23.6,0,47.2,0.3,70.8,0.4C1176.8,910.6,1186.2,910.6,1196.5,910.6z"/>
	<path d="M306.1,535c9.2,0,18.3,0,27.4,0c28.8,0,57.5,0.1,86.3,0c22.4-0.1,44.9-0.4,67.3-0.6c9-0.1,9.2-0.1,9.3,8.7
		c0.2,16.4,0,32.7,0,49.1c0,2.8,0,5.6,0,8.6c-10.2,0-20.5,0.1-30.7,0c-15.4-0.1-30.7-0.4-46.1-0.6c-11.8-0.1-23.6-0.4-35.3-0.3
		c-6,0-11.9,1-17.9,1.1c-9.2,0.2-18.5,0-27.7-0.1c-10-0.1-19.9-0.3-29.9-0.4c-3.5,0-3-2.6-2.9-4.6c0-8.8,0.2-17.6,0.3-26.4
		C306.1,558.2,306.1,546.9,306.1,535z"/>
	<path d="M906.1,534.7c6.1,0,12.2,0,18.4,0c16.9,0,33.9,0.1,50.8,0.1c27.3,0,54.5,0,81.8,0c11.8,0,23.6,0.1,35.4-0.2
		c3.6-0.1,4.2,1.4,4.2,4.4c0,19.1,0.1,38.3,0.1,57.4c0,1.3-0.2,2.6-0.4,4.2c-10.2,0-20.4,0.1-30.7,0c-15.4-0.1-30.7-0.4-46.1-0.6
		c-11.8-0.1-23.6-0.4-35.3-0.3c-6,0-11.9,1-17.9,1.1c-9.2,0.2-18.5,0-27.7-0.1c-10-0.1-19.9-0.3-29.9-0.4c-3.5,0-3.1-2.5-3-4.5
		c0-9.1,0.2-18.3,0.3-27.4C906.2,557.5,906.1,546.4,906.1,534.7z"/>
	<path d="M696.8,385c0,14.7,0,28.6,0,42.5c0,6.3,0,12.6,0.3,18.9c0.1,3.6-1.4,4.5-4.7,4.5c-14.9,0-29.7,0.2-44.6,0.2
		c-6.4,0-12.8-0.2-19.2-0.3c-7.6,0-15.3,0.2-22.9,0.1c-8.2-0.1-16.4-0.5-24.6-0.6c-15.8-0.2-31.7-0.4-47.5-0.3
		c-8,0.1-16.1,0.9-24.1,1.4c-2.8,0.2-3.9-0.5-3.9-3.8c0.3-19.5,0.3-39,0.3-58.6c0-4.1,2.3-4.1,5.2-4.1c18.4,0.3,36.8,0.8,55.2,0.9
		c28.2,0.2,56.4,0.2,84.6,0c12.4-0.1,24.9-0.9,37.3-1.3C690.9,384.5,693.7,384.9,696.8,385z"/>
	<path d="M1297.1,385.1c0,9.7,0,19,0,28.3c0,10.9-0.1,21.9,0,32.8c0.1,3.8-1.4,4.7-5,4.6c-10.6-0.2-21.2,0-31.8-0.1
		c-9.2-0.1-18.4-0.6-27.7-0.6c-9.1,0-18.1,0.7-27.2,0.7c-8,0-16.1-0.5-24.1-0.6c-15.8-0.2-31.7-0.4-47.5-0.3c-8,0.1-16.1,1-24.1,1.4
		c-2.4,0.1-4.2,0.1-4.1-3.6c0.4-19.7,0.3-39.4,0.3-59.1c0-2.9,1.4-3.9,4-3.8c11.8,0.3,23.5,0.8,35.3,0.9c9.1,0.1,18.3-0.3,27.4-0.5
		c15.1-0.2,30.2-0.4,45.3-0.5c23.6-0.2,47.1-0.2,70.7-0.3C1291.2,384.6,1293.9,384.9,1297.1,385.1z"/>
	<path d="M506.2,150.8c0-21.3-0.1-41.4,0.2-61.5c0-1.2,2.2-3.3,3.5-3.4c5.9-0.6,11.9-0.9,17.9-0.9c26.9,0,53.9,0.1,80.8,0.2
		c26.9,0,53.8,0,80.7,0.1c2.3,0,4.6,0.3,7.7,0.5c0,11.8,0.1,23.3,0,34.9c-0.1,8.8-0.4,17.6-0.3,26.4c0,2.9-1.2,3.4-3.5,3.4
		c-14.9-0.1-29.9-0.3-44.8-0.2c-14.2,0.1-28.4,0.8-42.6,1c-5.8,0.1-11.7-0.5-17.5-0.5c-10.3,0-20.7,0.2-31,0.2
		c-3.1,0-6.2-0.2-9.3-0.2C534.5,150.7,521.1,150.8,506.2,150.8z"/>
	<path d="M1296.6,85.7c0,20.7-0.1,40.8,0.1,60.9c0,3.4-1.2,3.9-4.1,3.9c-15.1-0.2-30.2-0.5-45.3-0.3c-14,0.2-28.1,1-42.1,1.3
		c-5.5,0.1-11-0.5-16.6-0.5c-11.3,0-22.7,0.5-34,0.3c-7.3-0.1-14.5-1.2-21.8-1.5c-8.4-0.3-16.9-0.1-25.7-0.1
		c-0.5-9.9-1.2-20.1-1.4-30.2c-0.2-9.2,0.2-18.5,0.3-27.8c0-5.4,1-6.3,6.8-6.3c9.6-0.1,19.3-0.3,28.9-0.3c22.1,0,44.2,0.1,66.4,0.2
		c27.1,0,54.2,0,81.2,0C1291.7,85.2,1294,85.5,1296.6,85.7z"/>
	<path d="M1106.2,749.8c0-18.6-0.1-36.9,0-55.1c0.1-9.1,0.3-9,9.6-9.1c21.9-0.1,43.9-0.5,65.8-0.6c11.8,0,23.6,0.4,35.4,0.4
		c24.1,0,48.2-0.2,72.3-0.2c2.3,0,4.6,0.3,7.7,0.4c0,11.6,0.1,23,0,34.3c-0.1,9-0.4,17.9-0.3,26.9c0,2.8-1.1,3.5-3.5,3.5
		c-14.9-0.1-29.9-0.3-44.8-0.2c-14.2,0.1-28.4,0.8-42.6,1c-5.8,0.1-11.7-0.5-17.5-0.5c-10.3,0-20.7,0.3-31,0.2
		c-9.1-0.1-18.1-0.8-27.2-1C1122.6,749.7,1115.1,749.8,1106.2,749.8z"/>
	<path d="M696.6,685.6c0,20.7-0.1,40.8,0.1,60.8c0,3.3-1.2,3.9-4,3.9c-15.1-0.2-30.2-0.5-45.3-0.3c-14,0.2-28.1,1-42.1,1.3
		c-5.5,0.1-11-0.5-16.6-0.5c-11.3,0-22.6,0.5-34,0.3c-7.9-0.1-15.8-1-23.7-1.3c-7.8-0.2-15.6-0.1-23.7-0.1c-0.4-7.1-1-14.3-1.1-21.5
		c-0.1-12.9,0.2-25.8,0.1-38.6c-0.1-5.1,3.6-4.2,6.2-4.3c11.5-0.3,22.9-0.4,34.4-0.4c20.6,0,41.2,0.1,61.9,0.1
		c26.9,0,53.8,0,80.7,0.1C691.7,685.2,694,685.5,696.6,685.6z"/>
	<path d="M496.7,234.9c0,13.5,0,26.6,0,39.6c0,7.3-0.3,14.6-0.3,21.9c0,3-0.9,4.1-4,4c-6.7-0.3-13.5-0.2-20.2-0.2
		c-10.9,0-21.7,0.1-32.6,0.1c-14,0-28.1-0.1-42.1-0.1c-15.8,0.1-31.6,0.5-47.4,0.5c-10.7,0-21.4-0.4-32.1-0.6
		c-3.2-0.1-6.5,0.4-9.6,0c-1-0.1-2.6-2.3-2.6-3.6c-0.1-18.5,0-36.9,0.1-55.4c0-2.9-0.3-6.1,4.4-6.1c42,0,84.1,0,126.1-0.1
		c18.1,0,36.2-0.1,54.3-0.1C492.6,234.9,494.4,234.9,496.7,234.9z"/>
	<path d="M1096.4,235.2c0,19.1,0.2,37.6-0.1,56.2c-0.1,9.3-0.4,9-9.7,8.9c-6.3-0.1-12.6,1.2-19,1.3c-5,0.1-10-0.6-15-0.7
		c-27.4-0.3-54.8-0.7-82.2-0.8c-15.9-0.1-31.9,0.5-47.8,0.7c-4.7,0.1-9.4,0.1-14.1-0.3c-1-0.1-2.7-2.3-2.7-3.5
		c-0.1-18.5,0-36.9,0.1-55.4c0-3.2-0.2-6.3,4.8-6.3c42.2,0.1,84.4,0,126.6-0.1c18.8,0,37.6-0.1,56.3-0.2
		C1094.5,234.9,1095.3,235.1,1096.4,235.2z"/>
	<path d="M496.7,834.9c0,13.5,0,26.6,0,39.7c0,7.3-0.3,14.6-0.3,21.9c0,3.1-1,4.1-4.1,4c-6.7-0.3-13.5-0.2-20.2-0.2
		c-10.9,0-21.7,0.1-32.6,0.1c-14,0-28.1-0.2-42.1-0.1c-15.8,0.1-31.6,0.5-47.4,0.5c-10.7,0-21.4-0.4-32.1-0.6
		c-3.2-0.1-6.5,0.4-9.6,0c-1-0.1-2.6-2.3-2.6-3.6c-0.1-18.3,0.1-36.6,0.1-54.9c0-5.7,0.6-6.4,6.4-6.5c41.7-0.1,83.4-0.1,125.1-0.2
		c17.8,0,35.6-0.1,53.3-0.2C492.6,834.9,494.4,834.9,496.7,834.9z"/>
	<path d="M1096.7,834.9c0,13.6,0,26.6,0,39.7c0,7.3-0.3,14.6-0.3,21.9c0,3.1-1,4.1-4.1,4c-6.6-0.3-13.1-0.2-19.7-0.2
		c-26.7,0.1-53.4,0.2-80.1,0.3c-15.8,0-31.6-0.4-47.4-0.3c-10.8,0.1-21.6,0.6-32.4,1.2c-4.8,0.2-6.8-1.8-6.7-6.7
		c0.3-12.5,0.4-25.1,0.4-37.6c0-5.6-0.3-11.2-0.5-16.8c-0.1-3,0.6-5.1,4.4-5.1c42,0,84.1,0,126.1-0.1c17.6,0,35.2-0.1,52.8-0.2
		C1091.6,834.9,1093.9,834.9,1096.7,834.9z"/>
	<path d="M495.1,685.9c3.2,15.7,1.6,42.5-2.4,44.9c1,0.8,2.8,1.6,2.8,2.5c0.2,4.6,0.1,9.3-0.3,13.9c-0.1,0.9-1.9,2.2-2.9,2.3
		c-7.7,0.6-15.4,1.1-23.1,1.4c-4.4,0.2-8.9,0-13.3,0c-9,0.1-18.1,0.5-27.1,0.4c-12.8-0.2-25.6-0.7-38.4-0.9c-1.8,0-3.5,0.9-5.3,0.9
		c-8.2-0.2-16.5-0.6-24.7-0.8c-6.4-0.2-12.8-0.2-19.3-0.2c-6.7,0-13.4,0.1-20.1,0.2c-3.2,0-6.6-0.5-9.6,0.3
		c-5.2,1.3-5.7-1.6-5.7-5.3c0-10.1,0-20.2,0.1-30.3c0.1-8.7,0.3-17.5,0.2-26.2c0-3.2,1.4-4,4.2-3.9c19.4,0.1,38.9,0.1,58.3,0.1
		c25.3,0.1,50.6,0.3,75.8,0.3c14.9,0,29.9-0.2,44.8-0.3C491.3,685.2,493.3,685.7,495.1,685.9z"/>
	<path d="M1096.2,686c0,8,0.4,15.9-0.1,23.7c-0.4,7.1,2.3,14.8-3.1,21.8c-0.4-0.5-0.2-0.3-0.1-0.1c0.8,1.1,2.4,2.2,2.4,3.2
		c-0.2,5-0.6,10-1.8,14.8c-0.1,0.6-4.9,0.2-7.5,0.2c-10.5,0.3-21,0.6-31.5,0.8c-11.8,0.3-23.6,0.8-35.4,0.8c-9.7,0-19.4-0.8-29.1-1
		c-1.9-0.1-3.9,1-5.8,1c-8.1-0.2-16.1-0.9-24.2-0.8c-10.1,0.1-20.2,0.9-30.3,1.1c-4.9,0.1-9.9,0.4-14.7-0.6c-2.9-0.6-7.3,2.4-8.8-2
		c-1-2.8-0.2-6.2-0.3-9.4c-0.1-11.9-0.2-23.8-0.2-35.7c0-5.1,0.4-10.2,0.3-15.3c0-3.1,1.6-3.5,4.1-3.5c19.4,0.1,38.9,0.1,58.3,0.1
		c25.3,0.1,50.6,0.3,75.8,0.4c14.9,0,29.9-0.2,44.8-0.3C1091.2,685.2,1093.2,685.6,1096.2,686z"/>
	<path d="M496.2,85.2c0,12.2,0,23.4,0,34.6c0,2.2-0.1,4.5-0.6,6.6c-0.4,1.7-1.5,3.3-2,4.3c0.6,1.6,1.5,3.1,1.7,4.7
		c0.3,3.3,0.4,6.6,0.3,9.9c-0.1,3-0.8,4.3-4.8,4.1c-6.8-0.4-13.8,0.9-20.7,1.3c-4.7,0.3-9.5,0.1-14.3,0.2c-9,0.1-18.1,0.5-27.1,0.4
		c-12.8-0.2-25.6-0.7-38.4-1c-1.8,0-3.5,1-5.3,0.9c-8.2-0.2-16.5-0.6-24.7-0.8c-6.3-0.2-12.5-0.3-18.8-0.3c-6.8,0-13.7,0.2-20.5,0.3
		c-3.2,0.1-6.5-0.4-9.6,0.3c-4.8,1.1-5.5-1.3-5.5-4.9c0-10.1,0-20.2,0-30.3c0.1-8.9,0.3-17.8,0.3-26.7c0-3.3,1.6-3.8,4.3-3.8
		c28.1,0.1,56.2,0.2,84.3,0.2c28.9,0,57.8,0,86.7-0.1C486,85.2,490.4,85.2,496.2,85.2z"/>
	<path d="M1096.1,85.1c0,12.4,0,23.6,0,34.8c0,2,0.1,4.1-0.4,6.1c-0.4,1.8-1.6,3.5-2.2,4.8c0.6,1.2,1.7,2.6,1.8,4.1
		c0.3,3.8,0.2,7.6,0.1,11.4c-0.1,2.3-1,3.1-3.8,3.2c-7.2,0-14.4,0.9-21.7,1.2c-4.4,0.2-8.9,0-13.3,0.1c-9.5,0.1-19,0.5-28.6,0.5
		c-9.3,0-18.7-0.7-28-0.6c-6.4,0-12.7,1-19.1,1c-8.6,0-17.1-0.9-25.6-0.9c-8.8,0-17.6,0.8-26.4,0.9c-6.7,0.1-13.4,0-20-0.7
		c-1.2-0.1-2.9-3.4-2.9-5.3c-0.3-9.9-0.2-19.8-0.1-29.8c0.1-9.1,0.3-18.2,0.3-27.2c0-3,1.4-3.7,4-3.7c28.9,0.1,57.9,0.3,86.8,0.3
		c16.9,0,33.9-0.2,50.8-0.2C1063.5,85,1079.2,85.1,1096.1,85.1z"/>
	<path d="M996.4,310.1c0,21.8,0,43.3,0,65.3c-63.7,0-126.7,0-190.3,0c0-21.7,0-43.3,0-65.3C869.7,310.1,932.7,310.1,996.4,310.1z"/>
	<path d="M396.4,310.1c0,21.9,0,43.4,0,65.3c-63.8,0-126.8,0-190.3,0c0-21.8,0-43.4,0-65.3C269.7,310.1,332.7,310.1,396.4,310.1z"/>
	<path d="M206,975.4c0-21.8,0-43.3,0-65.3c63.5,0,126.6,0,190.3,0c0,21.7,0,43.2,0,65.3C332.6,975.4,269.5,975.4,206,975.4z"/>
	<path d="M806.1,910.1c63.8,0,126.7,0,190.3,0c0,21.9,0,43.3,0,65.3c-63.7,0-126.7,0-190.3,0C806.1,953.7,806.1,932.1,806.1,910.1z"
		/>
	<path d="M396.1,75.8c-31.9-0.2-63.3-1.2-94.8-0.3c-31.6,0.9-63.2,0.2-95.4,0.2c0-5.6,0-11.6,0-17.7c0.1-13.9,0.3-27.8,0.2-41.7
		c0-4.1,0.8-5.9,5.8-5.8c23.6,0.2,47.2-0.4,70.8-0.4c33.1,0,66.2,0.2,99.3,0.3c4.4,0,8.9,0.4,14,0.6
		C396.1,32.5,396.1,53.6,396.1,75.8z"/>
	<path d="M996.2,675.9c-31.7-0.4-63.2-1.2-94.6-0.5c-31.6,0.7-63.2,0.2-95.7,0.2c0-5,0-10.9,0-16.7c0.1-14.2,0.2-28.4,0.3-42.7
		c0-3.6,0.4-5.6,5.4-5.6c23.8,0.2,47.6-0.4,71.3-0.4c33.1,0,66.2,0.2,99.3,0.4c4.4,0,8.9,0.4,13.9,0.7
		C996.2,632.7,996.2,653.7,996.2,675.9z"/>
	<path d="M996.2,75.8c-31.7-0.3-63.2-1.1-94.6-0.5c-31.6,0.7-63.2,0.2-95.7,0.2c0-5,0-10.9,0-16.7c0.1-14.2,0.2-28.4,0.3-42.7
		c0-3.6,0.4-5.6,5.4-5.6c23.8,0.2,47.6-0.4,71.3-0.4c33.1,0,66.2,0.2,99.3,0.4c4.4,0,8.9,0.4,13.9,0.7
		C996.2,32.6,996.2,53.5,996.2,75.8z"/>
	<path d="M206,675.7c0-12.1-0.1-24.5,0-37c0.1-8.2,0.4-16.4,0.5-24.7c0-2.5,0.6-3.5,3.4-3.5c24.3,0,48.5-0.4,72.8-0.4
		c33.1,0,66.2,0.2,99.3,0.3c4.4,0,8.9,0.4,14.1,0.6c0,21.3,0,42.4,0,64.9C333,673.4,269.8,677.1,206,675.7z"/>
	<path d="M906,449.9c0-21.1,0-42.5,0-65.2c7.7,0,15.1-0.1,22.5,0c11.3,0.1,22.5,0.4,33.8,0.5c15.5,0.1,30.9,0.2,46.4,0.2
		c16.7-0.1,33.5-0.4,50.2-0.5c11.3-0.1,22.5,0.2,33.8,0.1c3.2,0,4,1.3,4,4.1c0,20,0,40.1,0,61.4c-3.8,0-7.3-0.1-10.8,0
		c-2.4,0.1-4.8,0.4-7.3,0.4c-8.9,0-17.8,0-26.6-0.2c-9.7-0.2-19.4-0.6-29.1-0.8c-11.8-0.3-23.5-0.6-35.3-0.6
		c-7.2,0-14.3,1.2-21.5,1.2c-7.9,0.1-15.9-0.7-23.8-0.8C930.4,449.8,918.5,449.9,906,449.9z"/>
	<path d="M496.6,450.4c-4,0-7.5,0-11,0c-2.7,0-5.5,0.1-8.2,0.2c-8.2,0.1-16.5,0.3-24.7,0.2c-9.4-0.1-18.8-0.5-28.1-0.7
		c-12.3-0.3-24.5-0.6-36.8-0.6c-6.8,0-13.7,1.1-20.5,1.1c-7.6,0.1-15.2-0.6-22.8-0.7c-12.6-0.1-25.1,0-38.3,0c0-21.1,0-42.7,0-65.2
		c7.7,0,15-0.1,22.2,0c11.3,0.1,22.5,0.4,33.8,0.5c14.6,0.1,29.2,0.1,43.9,0c17.6-0.1,35.2-0.3,52.7-0.4c11.3,0,22.5,0.3,33.8,0.1
		c3.5,0,4.2,1.4,4.2,4.5C496.6,409.3,496.6,429.2,496.6,450.4z"/>
	<path d="M1006,460c64.2,0,127.2,0,190.2,0c0,17,0,33.3,0,49.6c0,3.3,0.3,6.6,0,9.9c-0.2,3,1,6.4-5.1,5.7c-8-1-16.3,0.1-24.5,0.2
		c-13.8,0.1-27.6,0.2-41.4,0.1c-7.1-0.1-14.1-0.8-21.2-0.9c-3.9-0.1-7.8,0.5-11.7,0.6c-11.6,0.4-23.2,1.1-34.8,1
		c-12.5-0.2-25-1.3-37.5-1.9c-3-0.1-6,0.6-9.1,0.6c-2.7,0-4.6-0.8-4.6-4.4c0-14.6-0.3-29.2-0.4-43.8
		C1005.9,471.4,1006,466.2,1006,460z"/>
	<path d="M596.2,460.2c0,20.4,0.1,40.2,0,60c0,5.3-1.1,6.1-8.9,6c-6.6-0.1-13.2-0.8-19.8-0.8c-14-0.1-27.9,0.1-41.9,0
		c-7.1,0-14.1-0.6-21.2-0.8c-2.7-0.1-5.5,0.6-8.2,0.7c-12.9,0.3-25.8,1-38.8,0.8c-12.5-0.2-25-1.3-37.5-1.9
		c-1.7-0.1-3.4,0.6-5.1,0.5c-8-0.7-8-0.7-8.1-8.9c-0.2-16.8-0.3-33.5-0.5-50.3c0-1.5,0.2-3,0.4-5.4
		C469.8,460.2,532.8,460.2,596.2,460.2z"/>
	<path d="M395.6,525.2c-63,0-126.1,0-189.7,0c0-21.1,0-42.9,0-64.8c63.1,0,126,0,189.7,0C395.6,482.5,395.6,503.7,395.6,525.2z"/>
	<path d="M995.6,461.1c0,21.5,0,42.8,0,64.1c-62.9,0-126,0-189.8,0c0-4.8,0-10.5,0-16.1c0-14.7,0-29.5-0.2-44.2
		c-0.1-3.9,0.9-5.2,5.2-5.2c25.9,0.1,51.9-0.2,77.8-0.2c23.6,0,47.3-0.1,70.9,0.2C971.2,459.8,983,460.6,995.6,461.1z"/>
	<path d="M896.3,149.6c-63.7,2.1-126.6,0.3-190,0.8c0-22.5,0-43.6,0-65.6c10.4,0,20.9,0,31.3,0c34.5,0.1,69.1,0.2,103.6,0.2
		c15.4,0,30.9,0.1,46.3,0c8.2,0,8.2-0.1,8.4,8.2c0,1.3,0,2.6,0,4.3c-1.8,0-3.6,0-5.5,0c6.8-1.1,5.8,3.5,5.8,7.6
		C896.3,120.1,896.3,134.9,896.3,149.6z"/>
	<path d="M295.8,97.6c-1.8,0-3.5,0-5.3,0c6.5-0.9,5.8,3.4,5.7,7.5c-0.1,14.8,0,29.6,0,45.1c-63.3,0-126.4,0-189.9,0
		c0-22.4,0-43.6,0-65.2c13.2,0,26.2,0,39.1,0c29.4,0,58.7,0,88.1,0c18.6,0,37.2,0.1,55.8,0c4.2,0,7.3,0.8,6.5,6.1
		C295.6,93.2,295.8,95.2,295.8,97.6z"/>
	<path d="M106.3,750.3c0-22.5,0-43.5,0-65.3c7.5,0,15.1-0.1,22.7,0c13.8,0.2,27.5,0.9,41.3,0.8c23.8,0,47.5-0.5,71.3-0.7
		c15.3-0.1,30.5,0.1,45.8,0c8.3,0,8.3-0.1,8.6,8.1c0,1.3,0,2.6,0,4.4c-1.8,0-3.6,0-5.4,0c6.6-0.9,5.8,3.5,5.7,7.6
		c-0.1,14.8,0,29.6,0,45.1C232.9,750.3,169.9,750.3,106.3,750.3z"/>
	<path d="M896.3,750.3c-63.6,0-126.5,0-189.9,0c0-22.4,0-43.6,0-65.2c13.2,0,26.2,0,39.1,0c29.4,0,58.7,0,88.1,0
		c18.6,0,37.2,0.1,55.8,0c4.2,0,7.3,0.8,6.5,6.1c-0.3,1.9,0,4,0,6.3c-1.6,0-3.4,0-5.3,0c6.6-0.9,5.8,3.5,5.7,7.6
		C896.2,720,896.3,734.8,896.3,750.3z"/>
	<path d="M706.4,299.8c0-21,0-42.3,0-64.3c63.4,0,126.3,0,189.8,0c0,5.9,0,11.7,0,17.5c0,13.6-0.1,27.1-0.1,40.7
		c0,7.3-0.7,7.7-7.6,6.8c-5.6-0.8-11.3-0.9-16.9-1.1c-5.7-0.2-11.5-0.3-17.2,0.1c-4.1,0.3-8.2,1.9-12.3,1.9c-6,0.1-12-0.7-18-0.8
		c-8.2-0.2-16.4-0.2-24.6-0.2c-7.7,0-15.4,0.2-23.1,0.1c-8.2,0-16.4,0.2-24.5-0.4c-8-0.6-15.8,1.4-24-0.1
		C721.1,298.8,713.8,299.8,706.4,299.8z"/>
	<path d="M106.4,300.1c0-21.6,0-42.8,0-64.9c4.7,0.3,8.7,0.8,12.8,0.7c13.6-0.2,27.2-0.8,40.7-0.9c14.4-0.1,28.9,0.2,43.3,0.2
		c9.5,0,18.9-0.3,28.4-0.2c14.4,0.2,28.7,0.7,43.1,0.8c5.9,0.1,11.9-0.3,17.8-0.8c4-0.3,4.1,2,4.1,5c-0.3,12-0.6,24.1-0.6,36.1
		c0,6.7,0.5,13.5,0.7,20.2c0.1,3.9-2.2,4.8-7.8,4.2c-5.9-0.6-11.9-0.7-17.8-0.9c-5.4-0.2-10.8-0.5-16.2-0.2c-4,0.2-7.9,1.4-11.9,1.7
		c-2.3,0.2-4.8-0.8-7.1-0.8c-11,0-21.9,0-32.9,0.1c-8.4,0.1-16.7,0.3-25.1,0.3c-11.6-0.1-23.2-0.5-34.8-0.7
		C130.8,300,118.8,300.1,106.4,300.1z"/>
	<path d="M706.4,900.1c0-21.6,0-42.9,0-64.8c5.4,0.2,10.1,0.7,14.9,0.6c14.1-0.2,28.2-0.9,42.2-1c19.4-0.1,38.8,0.2,58.2,0.3
		c15.9,0,31.9-0.1,47.8-0.1c7.7,0,15.4,0.2,23.1,0c3.7-0.1,4.1,2.1,4.1,4.6c-0.2,12-0.7,24.1-0.8,36.1c0,6.9,0.6,13.8,0.7,20.7
		c0.1,3.9-2.3,4.7-7.9,4.1c-5.9-0.6-11.9-0.6-17.8-0.8c-5.4-0.2-10.8-0.5-16.2-0.2c-4,0.2-7.9,1.4-11.9,1.8
		c-2.7,0.2-5.4-0.5-8.1-0.5c-10.6-0.1-21.3-0.2-31.9-0.2c-8.4,0-16.7,0.3-25.1,0.3c-11.6-0.1-23.2-0.5-34.8-0.7
		C730.8,900,718.7,900.1,706.4,900.1z"/>
	<path d="M296,835.5c0,11.9,0,23.4,0,34.9c0,7.8,0.1,15.5,0.2,23.3c0.1,7.3-0.7,7.8-7.6,6.8c-5.6-0.8-11.3-0.9-16.9-1.1
		c-5.7-0.2-11.5-0.3-17.2,0.1c-4.1,0.3-8.2,1.9-12.3,1.9c-6,0.1-12-0.7-18-0.8c-8.2-0.2-16.4-0.2-24.6-0.2c-7.7,0-15.4,0.2-23.1,0.1
		c-8.2,0-16.4,0.2-24.5-0.4c-8-0.7-15.8,1.4-24-0.1c-6.9-1.3-14.2-0.3-21.6-0.3c0-21,0-42.2,0-64.3
		C169.7,835.5,232.7,835.5,296,835.5z"/>
	<path d="M506.1,535.3c36.7,0,73,0,109.4,0c0.1,0.3,0.1,0.7,0.2,1c-0.8,0.4-1.6,0.7-2.2,1c2.3,1.1,4.9,2.3,7.8,3.6
		c-0.6-5.2,2.4-5.9,6.7-5.6c4.5,0.3,9.1-0.2,13.6-0.2c16.2-0.1,32.4,0,48.7-0.2c4.5-0.1,6.2,1.5,6.2,6c-0.2,14.6-0.2,29.2-0.3,43.8
		c0,5.1,0,10.1,0,15.7c-4,0-9,0.2-13.9,0c-6.9-0.3-13.9-1-20.8-1.2c-2.8-0.1-5.7,0.9-8.5,0.9c-3.4,0-6.7-0.7-10-1
		c-3.8-0.4-7,1.9-11.2,1c-5.3-1.1-11.1,0.6-16.7,0.6c-8.6-0.1-17.3-0.6-25.9-1c-0.5,0-1.1-0.2-1.5,0c-9.2,4.1-17.9-1.1-26.8-1.4
		c-2.2-0.1-4.5,0.7-6.8,0.9c-2.3,0.2-4.5,0.2-6.8,0.2c-1.1,0-2.1,0.2-3.2,0.2c-5.7-0.1-11.4-0.5-17.1-0.3
		c-5.1,0.2-10.1,0.7-15.1,1.6c-4.2,0.7-5.5-1.3-5.6-4.8c-0.3-6.4-1.4-13-0.4-19.3c0.8-5.1,0-9.9,0.2-14.8c0.3-5.3-0.2-10.6,0-15.8
		c0.1-2.3,1.2-4.6,1.4-6.9C507.6,538.2,506.7,537,506.1,535.3z"/>
	<path d="M1221.4,541c-0.7-4.5,1.1-5.8,5.5-5.7c16,0.4,31.9,0.4,47.9,0.5c5.3,0,10.6-0.5,15.9-0.8c3.6-0.2,5.6,0.9,5.6,4.9
		c-0.1,10.2-0.1,20.4-0.1,30.6c0,9.8,0,19.6,0,29.9c-4.2,0-9.1,0.2-14,0c-6.9-0.3-13.9-1-20.8-1.2c-2.8-0.1-5.7,0.9-8.5,0.9
		c-3.4,0-6.7-0.7-10-1c-3.8-0.4-7,1.9-11.2,1c-5.3-1.1-11.1,0.6-16.7,0.6c-8.6-0.1-17.3-0.6-25.9-1c-0.5,0-1.1-0.2-1.5,0
		c-9.2,4.1-17.9-1.1-26.8-1.4c-2.2-0.1-4.5,0.7-6.8,0.9c-2.3,0.2-4.5,0.2-6.8,0.2c-1.1,0-2.1,0.2-3.2,0.2
		c-5.7-0.1-11.4-0.5-17.1-0.3c-5.1,0.2-10.1,0.7-15.1,1.6c-4.2,0.7-5.5-1.3-5.6-4.8c-0.3-6.4-1.4-13-0.4-19.3
		c0.8-5.1,0-9.9,0.2-14.8c0.3-5.3-0.2-10.6,0-15.8c0.1-2.3,1.2-4.6,1.4-6.9c0.1-1.1-0.8-2.4-1.4-4.1c36.7,0,73,0,109.4,0
		c0.1,0.3,0.1,0.7,0.2,1c-0.8,0.4-1.6,0.7-2.2,1C1215.7,538.4,1218.3,539.6,1221.4,541z"/>
	<path d="M996.5,162.1c-1.8,0.9-3.5,1.8-5.1,2.7c5,0.3,5.1,3.3,4.5,7.9c-0.8,6.2-0.2,12.5-0.2,18.8c-1-0.1-2.4-0.3-3.5-0.4
		c-2.9,2.8,10,2.6,1.5,6.1c0.8,1.3,2.2,2.6,2.3,4c0.4,6.1,0.5,12.3,0.3,18.5c-0.1,5.1-2,6.2-6.9,5.9c-7.8-0.4-15.5-0.6-23.3-0.6
		c-8.6-0.1-17.2,0-25.7,0.2c-6.2,0.2-12.3,0.8-18.5,1.3c-0.8,0.1-1.6-0.1-2.4-0.1c-17.1-0.1-34.1-0.1-51.2-0.3
		c-11.1-0.1-22.1-0.6-33.2-0.8c-7.9-0.1-15.9,0-23.8,0.2c-3,0.1-4.7-0.3-4.7-3.8c0.1-9.1,0.2-18.2,0.1-27.3
		c-0.1-7.2-0.4-14.4-0.7-21.6c0-0.8-0.4-1.6-0.4-2.5c-0.6-8.7,0.5-10.1,9.1-10c15.1,0.1,30.2,0.6,45.2,0.8
		c8.4,0.1,16.9-0.5,25.3-0.5c16.7,0,33.4,0.4,50.1,0.3c17.8-0.1,35.6-0.5,53.4-0.7c2.3,0,4.6,0,6.9,0
		C995.9,160.8,996.2,161.4,996.5,162.1z"/>
	<path d="M396.5,194.1c-1.2,1.4-2.2,2.6-2.6,3.2c0.7,1.3,2.1,2.5,2.2,3.9c0.3,6.3,0.2,12.6,0.4,19c0.2,5.1-3.3,5.5-6.9,5.4
		c-7.4-0.1-14.9-0.6-22.3-0.7c-9.2-0.1-18.5,0.2-27.7,0.3c-13.2,0.2-26.3,0.6-39.5,0.7c-6.2,0-12.5-0.7-18.7-0.6
		c-9.2,0.1-18.4,1-27.6,1c-8.3,0-16.5-0.9-24.8-1.1c-6-0.1-12,0.4-18,0.2c-1.5-0.1-4.2-2-4.2-3.2c-0.3-9.3,0.1-18.5,0-27.8
		c0-7-0.4-14.1-0.6-21.1c0-0.7-0.2-1.3-0.3-2c-1.2-9.2,0.2-11.1,9.3-11c17.1,0.1,34.1,0.4,51.2,0.5c11.2,0,22.4-0.4,33.6-0.4
		c11.8,0,23.5,0.5,35.3,0.5c17.8-0.1,35.6-0.5,53.4-0.7c2.3,0,4.6,0,6.9,0c0.3,0.6,0.5,1.1,0.8,1.7c-1.7,1.1-3.3,2.1-4.6,3
		c4.9,0.5,4.7,3.5,4,8.3c-0.8,6,0.3,12.2,0.6,18.5c-1.5-0.2-2.9-0.4-4.3-0.6c-0.2,0.4-0.3,0.9-0.5,1.3
		C392.9,192.8,394.3,193.3,396.5,194.1z"/>
	<path d="M996.5,762c-1.7,1-3.4,2-4.9,2.8c4.8,0.5,4.9,3.4,4.1,8.2c-1,6-0.2,12.2-0.2,18.4c-0.7-0.1-2.1-0.3-3.4-0.5
		c-0.2,0.4-0.3,0.9-0.5,1.3c1.3,0.5,2.6,0.9,4.9,1.7c-1.1,1.4-2.1,2.7-2.6,3.3c0.7,1.2,2.1,2.4,2.1,3.7c0.3,6.3,0.2,12.6,0.5,19
		c0.2,5.1-3.2,5.5-6.8,5.5c-7.9-0.1-15.9-0.4-23.8-0.5c-8.4-0.1-16.8-0.1-25.2,0.2c-6.2,0.2-12.3,0.8-18.5,1.2c-0.8,0.1-1.6,0-2.4,0
		c-17.2-0.1-34.5-0.1-51.7-0.3c-10.9-0.1-21.8-0.6-32.7-0.8c-8-0.1-15.9-0.1-23.9,0.2c-3,0.1-4.8-0.3-4.8-3.6
		c0-9.1,0.2-18.2,0.1-27.3c-0.1-7.2-0.4-14.4-0.7-21.6c0-0.7-0.2-1.3-0.3-2c-1-8.9,0.4-10.6,9.4-10.6c17.1,0.1,34.1,0.4,51.2,0.5
		c11.4,0,22.8-0.3,34.1-0.3c14.6,0,29.1,0.2,43.7,0.3c13.4,0.1,26.8,0.2,40.1,0.2c3.7,0,7.5-0.6,11.2-0.9
		C995.8,760.6,996.2,761.3,996.5,762z"/>
	<path d="M396.5,762c-1.7,1-3.4,2-4.8,2.8c4.7,0.5,4.9,3.4,4.1,8.2c-1,6-0.2,12.2-0.2,18.4c-0.7-0.1-2.1-0.3-3.4-0.5
		c-0.2,0.3-0.4,0.7-0.6,1c0.8,0.4,1.5,1,2.3,1.3c0.6,0.2,1.2,0,3.3,0c-1.7,2.2-2.7,3.4-3.2,4c0.7,1.1,2.1,2.4,2.1,3.7
		c0.3,6.3,0.2,12.6,0.5,19c0.2,5.1-3.1,5.5-6.8,5.5c-7.9-0.1-15.9-0.4-23.8-0.5c-8.4-0.1-16.8-0.1-25.2,0.2
		c-6.2,0.2-12.3,0.8-18.5,1.2c-0.8,0.1-1.6,0-2.4,0c-17.2-0.1-34.5-0.1-51.7-0.3c-10.9-0.1-21.8-0.6-32.7-0.8
		c-8-0.1-15.9-0.1-23.9,0.2c-3,0.1-4.8-0.3-4.8-3.6c0-9.1,0.2-18.2,0.1-27.3c-0.1-7.4-0.5-14.7-0.7-22.1c0-0.5-0.2-1-0.3-1.5
		c-1-9,0.4-10.7,9.3-10.6c14.9,0.1,29.8,0.6,44.7,0.8c8.6,0.1,17.2-0.5,25.8-0.5c16.4,0,32.7,0.4,49.1,0.3c18-0.1,36-0.5,54-0.7
		c2.4,0,4.9,0,7.3,0C396.1,760.7,396.3,761.3,396.5,762z"/>
	<path d="M1206.3,975.1c0-21.1,0-42.6,0-64.7c63.3,0,126.4,0,189.9,0c-0.4,6.7-0.8,13.3-1.3,19.8c-0.4-0.1-0.8-0.2-1.2-0.3
		c0.7,0.8,1.9,1.6,1.9,2.4c0.4,9,0.7,18,0.8,26.9c0.1,4.4-0.1,8.9-0.7,13.2c-0.2,1.3-2.4,3.2-3.6,3.2c-10.8-0.1-21.6-1-32.4-0.9
		c-13.6,0.1-27.1,1-40.7,1.2c-4.9,0.1-9.9-0.8-14.8-0.9c-9.8-0.3-19.5-0.4-29.3-0.5c-7.2-0.1-14.4-0.1-21.5,0.2
		c-10.8,0.3-21.6,1-32.5,1.4c-2.6,0.1-5.2-0.3-7.9-0.5C1210.9,975.5,1208.5,975.3,1206.3,975.1z"/>
	<path d="M1206.3,310.4c63.5,0,126.6,0,189.9,0c-0.5,6.8-0.9,13.4-1.4,20.6c0.1,0.2,0.8,1.3,0.8,2.5c0.3,8.3,0.6,16.7,0.7,25
		c0.1,4.7,0,9.5-0.5,14.2c-0.1,1.2-2.4,3.1-3.7,3.1c-11.8-0.2-23.6-1.1-35.4-1.2c-10.1-0.2-20.2,0.4-30.3,0.4c-8,0-16-0.6-24-0.5
		c-12.1,0.1-24.1,0.7-36.2,0.8c-6.6,0.1-13.3-0.9-19.9-0.7c-8.3,0.2-16.5,1.1-24.8,1.5c-2.8,0.1-5.6-0.3-8.4-0.5
		c-2.2-0.2-4.3-0.4-6.7-0.6C1206.3,354.1,1206.3,332.5,1206.3,310.4z"/>
	<path d="M796.3,310.5c-0.4,7-0.8,13.4-1.2,19.8c-0.4-0.1-0.8-0.2-1.2-0.3c0.7,0.8,1.9,1.6,1.9,2.4c0.4,9,0.7,18,0.8,26.9
		c0.1,4.4-0.1,8.9-0.7,13.2c-0.2,1.3-2.3,3.3-3.6,3.2c-10.8-0.1-21.6-1-32.4-1c-13.6,0.1-27.1,1-40.7,1.2c-4.9,0.1-9.9-0.8-14.8-0.9
		c-9.8-0.3-19.5-0.5-29.3-0.5c-7.2-0.1-14.4,0-21.5,0.2c-10.8,0.3-21.6,1-32.5,1.3c-2.6,0.1-5.3-0.3-7.9-0.5
		c-2.3-0.2-4.7-0.4-6.9-0.5c0-21.1,0-42.5,0-64.7C669.6,310.5,732.7,310.5,796.3,310.5z"/>
	<path d="M6.4,375c0-21.2,0-42.7,0-64.6c63.2,0,126.3,0,189.9,0c-0.4,6.7-0.9,13.4-1.4,20.8c-0.1-0.2,0.8,0.9,0.8,1.9
		c0.3,8.5,0.6,17,0.7,25.5c0.1,4.7,0,9.5-0.5,14.2c-0.1,1.2-2.2,3-3.4,3c-11.3-0.2-22.6-1.1-33.9-1.1c-13.1,0-26.1,1-39.2,1.3
		c-4.9,0.1-9.9-0.7-14.8-0.8c-9.8-0.3-19.5-0.6-29.3-0.6c-7.2-0.1-14.4,0.1-21.5,0.3c-11,0.4-22,0.9-33,1.3
		c-2.6,0.1-5.2-0.4-7.9-0.6C10.8,375.4,8.6,375.2,6.4,375z"/>
	<path d="M6.3,975.1c0-21.3,0-42.8,0-64.6c63.3,0,126.3,0,189.8,0c-1.3,6.5,0.8,13.3-1.9,19.9c0.3,0.5,1.3,1.6,1.4,2.8
		c0.4,8.5,0.6,17,0.7,25.5c0.1,4.7,0,9.5-0.5,14.2c-0.1,1.1-2.3,3-3.5,3c-11.1-0.2-22.3-1.1-33.4-1c-13.2,0.1-26.4,0.9-39.7,1.2
		c-4.8,0.1-9.6-0.5-14.3-0.7c-7.9-0.3-15.7-0.7-23.6-0.8c-12.8-0.2-25.6-0.5-38.4-0.3c-7.3,0.1-14.5,1.4-21.8,1.9
		c-2.8,0.2-5.6-0.4-8.3-0.6C10.7,975.4,8.5,975.2,6.3,975.1z"/>
	<path d="M796.3,910.4c-0.4,6.9-0.9,13.4-1.3,19.9c-0.2-0.1-0.5-0.3-0.7-0.4c0.5,1,1.4,2,1.5,3.1c0.4,8.6,0.7,17.3,0.8,26
		c0.1,4.6,0,9.2-0.6,13.7c-0.2,1.2-2.5,3.1-3.8,3c-11.8-0.2-23.6-1.1-35.4-1.2c-10.1-0.2-20.2,0.4-30.3,0.4c-8,0-16-0.6-24-0.5
		c-11.9,0.1-23.8,0.6-35.7,0.7c-6.8,0-13.6-0.7-20.4-0.5c-8.3,0.2-16.5,1.1-24.8,1.5c-2.8,0.1-5.6-0.3-8.3-0.5
		c-2.2-0.2-4.3-0.4-6.7-0.6c0-20.9,0-42.5,0-64.5C669.7,910.4,732.9,910.4,796.3,910.4z"/>
	<path d="M796.1,160.1c0,21.7,0,42.9,0,65.3c-6.6-0.4-13.5-0.9-20.4-1.1c-3.2-0.1-6.5,0.7-9.7,0.8c-4.4,0.1-8.9-0.1-13.3-0.2
		c-15-0.3-30.1-1-45.1-0.8c-12.5,0.1-24.9,1.4-37.4,1.9c-5.5,0.2-10.9-0.6-16.4-0.7c-8.6-0.1-17.2,0.2-25.8,0.1
		c-7-0.1-13.9-0.7-21.8-1.2c0-19.5,0.1-40-0.1-60.6c0-3.9,2.4-3.7,4.9-3.7c13.5,0.3,26.9,0.9,40.4,0.8c22.9-0.1,45.7-0.7,68.6-0.9
		c18.3-0.1,36.5,0,54.8,0.1C781.9,160.1,789,160.1,796.1,160.1z"/>
	<path d="M1206.3,225.4c0-20.2,0.2-40.1-0.2-60.1c-0.1-4.5,1.3-5.4,5.2-5.3c13.3,0.4,26.6,0.9,39.9,0.9c22.7-0.1,45.4-0.6,68.1-0.8
		c18.4-0.1,36.8,0,55.3,0c7.1,0,14.2,0,21.4,0c0,21.6,0,42.8,0,65.3c-6.5-0.4-13.4-0.8-20.3-1.1c-2.4-0.1-4.9,0.2-7.3,0.2
		c-10.7-0.1-21.3-0.4-32-0.4c-4.4,0-8.8,0.4-13.2,0.7c-2.4,0.1-4.9,0.4-7.3,0.4c-7.6,0.1-15.3,0.3-22.9,0.3
		c-8.6,0-17.2-0.4-25.8-0.3c-7.7,0.1-15.5,1.1-23.2,1c-8.4-0.2-16.8-1.4-25.3-1.8C1214.9,224.2,1211,225,1206.3,225.4z"/>
	<path d="M6.1,824.3c0-19.4,0.1-39.9-0.1-60.3c0-4.2,2.3-4,5.1-4c13.5,0.3,26.9,0.9,40.4,0.8c22.7-0.1,45.4-0.7,68.1-0.8
		c18.3-0.1,36.5,0,54.8,0c7.1,0,14.2,0,21.6,0c0,21.6,0,42.9,0,65.3c-6.5-0.3-13.3-0.7-20.1-1c-2.6-0.1-5.2,0.1-7.8,0.2
		c-6.6,0.1-13.1,0.1-19.7,0.1c-5.8,0-11.6,0-17.4,0c-7.4-0.1-14.8-0.3-22.3-0.2c-5,0.1-10,0.8-15,0.9c-3.7,0.1-7.4-0.4-11.1-0.2
		c-5.9,0.3-11.9,1.1-17.8,1.3c-4,0.1-7.9-1-11.9-1.1c-8.3-0.1-16.6,0.3-24.8,0.2C21.1,825.4,14,824.8,6.1,824.3z"/>
	<path d="M796.1,760.1c0,21.8,0,43,0,65.3c-6.5-0.3-13.3-0.7-20.1-1c-2.6-0.1-5.2,0.1-7.8,0.2c-6.6,0.1-13.1,0.1-19.7,0.1
		c-5.8,0-11.6,0-17.4,0c-7.4-0.1-14.8-0.3-22.3-0.2c-5,0.1-10,0.8-15,0.9c-3.7,0.1-7.4-0.4-11.1-0.3c-5.9,0.3-11.9,1.1-17.8,1.3
		c-3.5,0.1-6.9-0.9-10.4-1c-8.9-0.1-17.9,0.3-26.8,0.1c-6.9-0.1-13.9-0.7-21.6-1.2c0-19.4,0.1-39.9-0.1-60.3c0-4.2,2.3-4,5.1-4
		c13.5,0.3,26.9,0.9,40.4,0.8c22.7-0.1,45.4-0.7,68.1-0.9c18.3-0.1,36.5,0,54.8,0C781.6,760.1,788.7,760.1,796.1,760.1z"/>
	<path d="M196.1,160.1c0,21.8,0,43,0,65.3c-6.6-0.3-13.3-0.7-20.1-1c-2.6-0.1-5.2,0.1-7.8,0.2c-6.6,0.1-13.1,0.1-19.7,0.1
		c-5.8,0-11.6,0-17.4,0c-7.4-0.1-14.8-0.3-22.3-0.2c-5,0.1-10,0.8-15,0.9c-3.7,0.1-7.4-0.4-11.1-0.3c-5.9,0.3-11.9,1.1-17.8,1.3
		c-3.1,0.1-6.3-1.3-9.5-1.3c-9.4,0-18.8,0.4-28.2,0.4c-6.6-0.1-13.3-0.7-20.2-1.1c0-9.1,0.1-19.3,0-29.6c-0.1-9.9-0.2-19.8-0.8-29.7
		c-0.3-4.3,1.3-5.1,5.1-5c13.5,0.4,26.9,0.9,40.4,0.9c22.7-0.1,45.4-0.7,68.1-0.9c18.3-0.1,36.5,0,54.8,0
		C181.6,160.1,188.7,160.1,196.1,160.1z"/>
	<path d="M1396.1,760.1c0,21.7,0,42.9,0,65.3c-6.6-0.4-13.5-0.9-20.4-1.1c-3.2-0.1-6.5,0.7-9.7,0.8c-4.4,0.1-8.9-0.1-13.3-0.2
		c-15-0.3-30.1-1-45.1-0.8c-12.5,0.1-24.9,1.4-37.4,1.9c-5.5,0.2-10.9-0.6-16.4-0.7c-8.6-0.1-17.2,0.2-25.8,0.1
		c-7-0.1-13.9-0.7-21.8-1.2c0-19.5,0.1-40-0.1-60.6c0-3.9,2.4-3.7,4.9-3.7c13.5,0.3,26.9,0.9,40.4,0.8c22.9-0.1,45.7-0.7,68.6-0.9
		c18.3-0.1,36.5,0,54.8,0.1C1381.9,760.1,1389,760.1,1396.1,760.1z"/>
</g>
</svg>
